<?xml version="1.0" encoding="UTF-8"?>
<svg version="1.1" xmlns="http://www.w3.org/2000/svg" width="346" height="257">
<path d="M0 0 C0.66 0.33 1.32 0.66 2 1 C1.14341797 2.09441406 1.14341797 2.09441406 0.26953125 3.2109375 C-5.27755332 10.33924392 -10.63151873 17.58833514 -15.90136719 24.92358398 C-19.8774814 30.45514206 -23.89207443 35.95643687 -27.9375 41.4375 C-28.51781982 42.22390869 -29.09813965 43.01031738 -29.69604492 43.82055664 C-32.05312572 47.0130007 -34.41184968 50.20422905 -36.77050781 53.39550781 C-43.05501735 61.90093735 -49.32019635 70.41808621 -55.5 79 C-61.68101263 87.58359269 -67.94785667 96.10201249 -74.23388672 104.60888672 C-77.15956094 108.56991151 -80.07957278 112.53510594 -83 116.5 C-86.50888924 121.26381471 -90.01897803 126.02671798 -93.53515625 130.78515625 C-99.22964599 138.49539457 -104.89882943 146.22163589 -110.5 154 C-114.9443296 160.17185523 -119.42273965 166.31696143 -123.9375 172.4375 C-124.80084961 173.60804932 -124.80084961 173.60804932 -125.68164062 174.80224609 C-128.71135439 178.90688339 -131.74653322 183.00742336 -134.78515625 187.10546875 C-135.40720947 187.94601807 -136.0292627 188.78656738 -136.67016602 189.65258789 C-137.84721107 191.24297285 -139.02594836 192.83210751 -140.20678711 194.41967773 C-142.89583116 198.05520112 -145.49771464 201.71752842 -147.9765625 205.5 C-151.04413098 210.1496926 -154.41757811 214.51088492 -157.875 218.875 C-162.60629897 224.88452287 -167.19917592 230.93185036 -171.546875 237.2265625 C-172.02640625 237.81179687 -172.5059375 238.39703125 -173 239 C-173.66 239 -174.32 239 -175 239 C-176.51782227 236.78222656 -176.51782227 236.78222656 -178.31640625 233.640625 C-178.80830193 232.79013832 -178.80830193 232.79013832 -179.31013489 231.92247009 C-180.02400045 230.68688582 -180.73458521 229.44940174 -181.44232178 228.21029663 C-183.35591592 224.86153294 -185.29452748 221.52728392 -187.23046875 218.19140625 C-187.82761688 217.16041557 -187.82761688 217.16041557 -188.43682861 216.1085968 C-192.32374513 209.41081587 -196.33593266 202.79454276 -200.375 196.1875 C-206.49213031 186.16894335 -212.52162333 176.10194305 -218.5 166 C-224.48880199 155.88407955 -230.51768905 145.79484912 -236.625 135.75 C-237.30546387 134.62932129 -237.98592773 133.50864258 -238.68701172 132.35400391 C-241.98755689 126.92548594 -245.30104188 121.50569185 -248.64053345 116.10107422 C-250.25172593 113.4913654 -251.85698657 110.87803461 -253.46160889 108.26428223 C-254.23273294 107.0120198 -255.00683169 105.76158394 -255.78399658 104.51306152 C-256.85533386 102.79178234 -257.91622958 101.06401727 -258.9765625 99.3359375 C-259.58580566 98.35157715 -260.19504883 97.3672168 -260.82275391 96.35302734 C-261.21124512 95.57652832 -261.59973633 94.8000293 -262 94 C-261.505 93.01 -261.505 93.01 -261 92 C-252.796875 99.51953125 -252.796875 99.51953125 -251.06152344 101.11474609 C-249.50801015 102.53542701 -247.94756186 103.94853 -246.38378906 105.35791016 C-238.41609736 112.57689765 -230.80695963 120.10440806 -223.25 127.75 C-213.90753779 137.24906107 -213.90753779 137.24906107 -204.03808594 146.18896484 C-199.31974737 150.38166195 -194.94271037 154.95639047 -190.5 159.4375 C-189.47679861 160.4657298 -188.45336267 161.49372626 -187.4296875 162.52148438 C-184.95042001 165.01164338 -182.47432462 167.50492833 -180 170 C-176.97883015 168.63739753 -174.79224738 167.080215 -172.390625 164.8046875 C-171.72224609 164.17498047 -171.05386719 163.54527344 -170.36523438 162.89648438 C-169.66720703 162.22939453 -168.96917969 161.56230469 -168.25 160.875 C-167.53134766 160.19501953 -166.81269531 159.51503906 -166.07226562 158.81445312 C-161.88022049 154.83562736 -157.75848961 150.79785327 -153.70703125 146.67578125 C-151.92851116 144.92981988 -150.08093732 143.30773595 -148.1875 141.6875 C-144.79804395 138.77749549 -141.63548547 135.67840058 -138.5 132.5 C-134.83153502 128.78153039 -131.0685078 125.26331813 -127.09375 121.875 C-124.46014444 119.51654726 -121.98173782 117.0155432 -119.5 114.5 C-116.44662049 111.40508498 -113.37676315 108.38065723 -110.0625 105.5625 C-106.52320926 102.54647196 -103.26505255 99.30552422 -100 96 C-96.14878063 92.10104317 -92.23578271 88.39175703 -88.05859375 84.83984375 C-84.92846838 82.04233133 -82.01314342 79.03375494 -79.06616211 76.04663086 C-75.86614229 72.82001347 -72.54927728 69.82069539 -69.09375 66.875 C-66.46014444 64.51654726 -63.98173782 62.0155432 -61.5 59.5 C-58.44662049 56.40508498 -55.37676315 53.38065723 -52.0625 50.5625 C-48.00345709 47.103562 -44.28271102 43.34164971 -40.56274414 39.52563477 C-37.97895918 36.89622005 -35.34219468 34.41310669 -32.53125 32.02734375 C-25.84371462 26.24262564 -19.72759213 19.83176667 -13.5 13.5625 C-12.18773415 12.24520941 -10.87523605 10.92815014 -9.5625 9.61132812 C-6.37231494 6.4102139 -3.18529349 3.20598135 0 0 Z " fill="#1ea366" transform="translate(283,5)"/>
</svg>
