<?xml version="1.0" encoding="UTF-8"?>
<svg version="1.1" xmlns="http://www.w3.org/2000/svg" width="239" height="122">
<path d="M0 0 C2.4807274 2.21782271 3.69309325 4.17570899 4.9172821 7.25758362 C5.44093857 8.55942093 5.44093857 8.55942093 5.97517395 9.88755798 C6.3477684 10.83675613 6.72036285 11.78595428 7.10424805 12.76391602 C7.50458252 13.76575928 7.90491699 14.76760254 8.31738281 15.79980469 C9.63977265 19.1148654 10.95090023 22.43425487 12.26171875 25.75390625 C13.17607977 28.05434393 14.09102997 30.35454751 15.00654602 32.65452576 C16.92363763 37.47539446 18.83551734 42.29828555 20.7434082 47.12280273 C23.19396084 53.31915065 25.65433938 59.51152118 28.11822796 65.70257664 C30.00747298 70.45135195 31.89305303 75.20157507 33.77735329 79.95231438 C34.68366331 82.23687629 35.59076676 84.5211236 36.49866295 86.80505562 C37.76393096 89.99048692 39.02462568 93.17768791 40.28393555 96.36547852 C40.66260269 97.3167009 41.04126984 98.26792328 41.43141174 99.24797058 C41.77205658 100.1130423 42.11270142 100.97811401 42.46366882 101.86940002 C42.76212047 102.6232174 43.06057211 103.37703478 43.36806774 104.15369511 C44 106 44 106 44 108 C15.62 108 -12.76 108 -42 108 C-41.28887056 104.44435281 -40.6313063 101.76464789 -39.32322693 98.4884491 C-38.97687195 97.61491791 -38.63051697 96.74138672 -38.27366638 95.84138489 C-37.70398888 94.42366035 -37.70398888 94.42366035 -37.12280273 92.97729492 C-36.72276031 91.97194702 -36.3227179 90.96659912 -35.91055298 89.93078613 C-34.58894651 86.61238422 -33.26130272 83.29643319 -31.93359375 79.98046875 C-31.01542017 77.67847808 -30.09762426 75.37633674 -29.18019104 73.0740509 C-26.76566541 67.01778567 -24.34601222 60.96358183 -21.92529297 54.90979004 C-19.45510255 48.73099308 -16.99068035 42.54989413 -14.52539062 36.36914062 C-9.68833884 24.24419626 -4.84603323 12.12135731 0 0 Z M0 16 C-4.30876561 26.63719949 -8.61195784 37.27663445 -12.90799713 47.9189806 C-14.90287349 52.86027277 -16.89968048 57.80076643 -18.90087891 62.73950195 C-20.83112017 67.50332578 -22.75631685 72.26915899 -24.67799377 77.03644371 C-25.41300673 78.85728524 -26.14985195 80.67738823 -26.88853455 82.49674416 C-27.92074623 85.03994073 -28.94648383 87.58565631 -29.97070312 90.13208008 C-30.2792775 90.88805481 -30.58785187 91.64402954 -30.90577698 92.4229126 C-32.1092727 95.4312918 -33 97.72801844 -33 101 C-23.76 101 -14.52 101 -5 101 C-0.56564095 91.58467369 3.57673857 82.09265275 7.48901367 72.45019531 C8.12688893 70.88645683 8.77187885 69.32560358 9.42358398 67.76757812 C10.3804645 65.47887809 11.31543765 63.18228037 12.24609375 60.8828125 C12.53866562 60.19414093 12.83123749 59.50546936 13.13267517 58.79592896 C16.09322336 51.32947361 14.19856325 45.91858145 11.27734375 38.75390625 C11.01240616 38.09792953 10.74746857 37.44195282 10.47450256 36.76609802 C9.63614841 34.69517092 8.78704777 32.62885676 7.9375 30.5625 C7.36321274 29.14938075 6.78963809 27.73597168 6.21679688 26.32226562 C4.81941625 22.87812292 3.41237023 19.43802737 2 16 C1.34 16 0.68 16 0 16 Z M18 61 C15.85710066 66.21172878 13.72104213 71.42618778 11.59130859 76.64331055 C10.8656506 78.41816934 10.13812049 80.19226389 9.40869141 81.96557617 C8.36128945 84.51282922 7.32062393 87.06274378 6.28125 89.61328125 C5.95314331 90.40712723 5.62503662 91.20097321 5.2869873 92.01887512 C3.50934406 96.36885398 3.50934406 96.36885398 3 101 C13.56 101 24.12 101 35 101 C33.17110912 94.90369708 31.43993599 89.29231481 29.08203125 83.4609375 C28.81992355 82.80920563 28.55781586 82.15747375 28.2877655 81.48599243 C27.46678716 79.44730698 26.63978502 77.41113316 25.8125 75.375 C25.24764205 73.97542373 24.68318594 72.57568521 24.11914062 71.17578125 C22.750716 67.78197327 21.37688565 64.39038557 20 61 C19.34 61 18.68 61 18 61 Z " fill="#ffffff" transform="translate(54,7)"/>
<path d="M0 0 C2.125 0.375 2.125 0.375 4 1 C4.01030746 1.65954681 4.02061493 2.31909363 4.03123474 2.99862671 C4.13915379 9.8439149 4.25376339 16.68906754 4.37231445 23.53417969 C4.41571022 26.09111707 4.4573818 28.64808431 4.49731445 31.20507812 C4.55490469 34.87378959 4.61863138 38.54235011 4.68359375 42.2109375 C4.70030624 43.35992523 4.71701874 44.50891296 4.73423767 45.69271851 C4.75418289 46.7536673 4.77412811 47.81461609 4.79467773 48.90771484 C4.81022202 49.84481293 4.8257663 50.78191101 4.84178162 51.74740601 C4.85779985 54.03513791 4.85779985 54.03513791 6 56 C8.9737344 57.09036928 9.88407501 57.03864166 13 56 C14.2546715 53.49065701 14.15873558 51.71622645 14.20532227 48.90771484 C14.22526749 47.84676605 14.24521271 46.78581726 14.26576233 45.69271851 C14.28247482 44.54373077 14.29918732 43.39474304 14.31640625 42.2109375 C14.33718735 41.03737701 14.35796844 39.86381653 14.37937927 38.6546936 C14.44491983 34.89485696 14.50378076 31.13494878 14.5625 27.375 C14.60568092 24.83072168 14.64929507 22.28645067 14.69335938 19.7421875 C14.80060582 13.49486793 14.9023638 7.24747674 15 1 C16.875 0.375 16.875 0.375 19 0 C21.55636086 2.55636086 21.26835607 3.54104378 21.31884766 7.09228516 C21.33871735 8.15323395 21.35858704 9.21418274 21.37905884 10.30728149 C21.39061005 11.45626923 21.40216125 12.60525696 21.4140625 13.7890625 C21.43342865 14.96262299 21.4527948 16.13618347 21.4727478 17.3453064 C21.53267664 21.10512961 21.57898246 24.86498323 21.625 28.625 C21.6631675 31.16928442 21.70221849 33.71355575 21.7421875 36.2578125 C21.83838905 42.50509241 21.92339738 48.75245072 22 55 C24.26601865 56.29042763 24.26601865 56.29042763 27 57 C29.39550506 56.08238229 29.39550506 56.08238229 31 54 C31.61602495 51.57067919 31.61602495 51.57067919 31.54589844 48.79418945 C31.56561707 47.73331619 31.58533569 46.67244293 31.60565186 45.579422 C31.60688049 44.43559555 31.60810913 43.2917691 31.609375 42.11328125 C31.62591125 40.94113571 31.64244751 39.76899017 31.65948486 38.56132507 C31.70813168 34.81166431 31.7293737 31.06240957 31.75 27.3125 C31.77814558 24.77276585 31.80807099 22.23305074 31.83984375 19.69335938 C31.91389521 13.46231371 31.96543981 7.23138302 32 1 C33.9375 0.4375 33.9375 0.4375 36 0 C37.69501739 1.69501739 37.16232304 3.85281761 37.19287109 6.17480469 C37.20893402 7.27975281 37.22499695 8.38470093 37.24154663 9.52313232 C37.28584044 14.59093755 37.32707282 19.65860905 37.35009766 24.7265625 C37.36342062 27.40204183 37.39123625 30.07675542 37.43212891 32.75195312 C37.48682272 36.60049496 37.50876296 40.44799712 37.5234375 44.296875 C37.54610687 45.49286316 37.56877625 46.68885132 37.59213257 47.92108154 C37.56856295 57.16320503 37.56856295 57.16320503 34.59228516 60.23144531 C30.36176179 63.11766788 27.05906991 63.43780413 22 63 C20.33333333 62.33333333 18.66666667 61.66666667 17 61 C16.01 61.66 15.02 62.32 14 63 C9.52791917 63.72022276 6.01330547 63.58211165 2.0625 61.3125 C-1.39910624 57.43130513 -2.24979763 53.81388365 -2.25878906 48.69067383 C-2.26509338 47.65642776 -2.27139771 46.6221817 -2.27789307 45.55659485 C-2.2738446 44.45123886 -2.26979614 43.34588287 -2.265625 42.20703125 C-2.26753845 41.064655 -2.2694519 39.92227875 -2.27142334 38.74528503 C-2.27278238 36.33547749 -2.26910562 33.92566256 -2.26074219 31.51586914 C-2.25000943 27.81575227 -2.26066243 24.1161177 -2.2734375 20.41601562 C-2.27211644 18.07551976 -2.26955514 15.73502419 -2.265625 13.39453125 C-2.26967346 12.28310257 -2.27372192 11.17167389 -2.27789307 10.02656555 C-2.27158875 9.00177597 -2.26528442 7.97698639 -2.25878906 6.92114258 C-2.25719788 6.01689041 -2.25560669 5.11263824 -2.25396729 4.1809845 C-2 2 -2 2 0 0 Z " fill="#ffffff" transform="translate(188,51)"/>
<path d="M0 0 C3.47949533 2.73917718 5.23803369 4.67748931 6 9 C6.08978185 10.69951143 6.12787505 12.40212331 6.12939453 14.10400391 C6.13254669 15.11830475 6.13569885 16.13260559 6.13894653 17.17764282 C6.1369223 18.26628632 6.13489807 19.35492981 6.1328125 20.4765625 C6.13424759 22.15895523 6.13424759 22.15895523 6.13571167 23.87533569 C6.13639178 26.24403947 6.13454926 28.61274512 6.13037109 30.98144531 C6.12501049 34.61788079 6.13032697 38.25419332 6.13671875 41.890625 C6.13605814 44.19010444 6.13477732 46.4895838 6.1328125 48.7890625 C6.13483673 49.88175446 6.13686096 50.97444641 6.13894653 52.10025024 C6.13579437 53.10824677 6.13264221 54.11624329 6.12939453 55.15478516 C6.12859894 56.04428864 6.12780334 56.93379211 6.12698364 57.85025024 C6 60 6 60 5 62 C3.35 61.67 1.7 61.34 0 61 C-0.00808685 60.35520187 -0.01617371 59.71040375 -0.02450562 59.04606628 C-0.11043571 52.3465065 -0.20993414 45.64724656 -0.31738281 38.94799805 C-0.35571119 36.44642159 -0.39055718 33.94478928 -0.421875 31.44311523 C-0.46744146 27.85119643 -0.52545024 24.25966338 -0.5859375 20.66796875 C-0.59748871 19.54601608 -0.60903992 18.42406342 -0.62094116 17.26811218 C-0.64081085 16.22725967 -0.66068054 15.18640717 -0.68115234 14.11401367 C-0.69447601 13.19690109 -0.70779968 12.27978851 -0.7215271 11.33488464 C-0.85377574 8.72938861 -0.85377574 8.72938861 -3 6 C-5.5 5.58333333 -5.5 5.58333333 -8 6 C-10.55636086 8.55636086 -10.26835607 9.54104378 -10.31884766 13.09228516 C-10.33871735 14.15323395 -10.35858704 15.21418274 -10.37905884 16.30728149 C-10.39061005 17.45626923 -10.40216125 18.60525696 -10.4140625 19.7890625 C-10.43342865 20.96262299 -10.4527948 22.13618347 -10.4727478 23.3453064 C-10.53267664 27.10512961 -10.57898246 30.86498323 -10.625 34.625 C-10.6631675 37.16928442 -10.70221849 39.71355575 -10.7421875 42.2578125 C-10.83838905 48.50509241 -10.92339738 54.75245072 -11 61 C-12.65614657 61.38218767 -14.32457024 61.71395102 -16 62 C-17.66726581 60.33273419 -17.15297712 58.31625865 -17.17700195 56.0246582 C-17.18983719 54.96297928 -17.20267242 53.90130035 -17.21589661 52.80744934 C-17.22328354 51.65024887 -17.23067047 50.4930484 -17.23828125 49.30078125 C-17.246353 48.11783981 -17.25442474 46.93489838 -17.26274109 45.71611023 C-17.27660423 43.20504227 -17.28731634 40.69395529 -17.29516602 38.18286133 C-17.31234929 34.34615117 -17.35621372 30.51030891 -17.40039062 26.67382812 C-17.41051955 24.23698552 -17.41903502 21.80013557 -17.42578125 19.36328125 C-17.44328934 18.21620193 -17.46079742 17.06912262 -17.47883606 15.88728333 C-17.46185731 9.63428117 -17.29446242 5.70709583 -13 1 C-8.88533098 -1.62881632 -4.55225547 -1.43465021 0 0 Z " fill="#ffffff" transform="translate(128,52)"/>
<path d="M0 0 C3.6578218 2.03993908 5.66946174 3.50419262 8 7 C8.22705078 9.8190918 8.22705078 9.8190918 8.1953125 13.19921875 C8.18886719 14.40771484 8.18242187 15.61621094 8.17578125 16.86132812 C8.15902344 18.12396484 8.14226562 19.38660156 8.125 20.6875 C8.11597656 21.96173828 8.10695312 23.23597656 8.09765625 24.54882812 C8.07405641 27.69940627 8.04113194 30.84960983 8 34 C4.93466836 35.53266582 1.73245728 35.10276471 -1.625 35.0625 C-2.33140625 35.05798828 -3.0378125 35.05347656 -3.765625 35.04882812 C-5.51045275 35.03703875 -7.255237 35.01910324 -9 35 C-8.88588196 37.75084547 -8.75914051 40.50011947 -8.625 43.25 C-8.5940625 44.02730469 -8.563125 44.80460937 -8.53125 45.60546875 C-8.32410835 51.10578093 -8.32410835 51.10578093 -6 56 C-4.10231241 56.99530794 -4.10231241 56.99530794 -2 57 C1.47917182 54.68055212 2.29429766 52.73630036 4 49 C5.32 49.33 6.64 49.66 8 50 C8.34751969 52.91916538 8.53280018 55.13195476 6.95703125 57.69921875 C3.76650134 61.56340893 2.23767002 62.876233 -2.75 63.375 C-6.10058068 63.35058775 -7.84894532 62.75601354 -10.4375 60.625 C-13.71818006 57.26430336 -14.12450366 55.89232957 -14.17700195 51.35424805 C-14.18983719 50.38952072 -14.20267242 49.4247934 -14.21589661 48.43083191 C-14.22328354 47.38502457 -14.23067047 46.33921722 -14.23828125 45.26171875 C-14.246353 44.18880081 -14.25442474 43.11588287 -14.26274109 42.01045227 C-14.2765886 39.73655823 -14.28730776 37.46264333 -14.29516602 35.1887207 C-14.3123787 31.71200138 -14.35625988 28.2362328 -14.40039062 24.75976562 C-14.41051735 22.55209034 -14.41903351 20.34440695 -14.42578125 18.13671875 C-14.44328934 17.0969841 -14.46079742 16.05724945 -14.47883606 14.98600769 C-14.45709199 7.7454556 -14.45709199 7.7454556 -12.09057617 3.88598633 C-8.17761708 0.35596075 -5.32486073 -0.63898329 0 0 Z M-8 8 C-8.92188461 10.76565382 -9.11785222 12.38283702 -9.09765625 15.23046875 C-9.09443359 16.03291016 -9.09121094 16.83535156 -9.08789062 17.66210938 C-9.07951172 18.49548828 -9.07113281 19.32886719 -9.0625 20.1875 C-9.05798828 21.03248047 -9.05347656 21.87746094 -9.04882812 22.74804688 C-9.03705403 24.83206155 -9.0191189 26.91603977 -9 29 C-5.04 29 -1.08 29 3 29 C3.05416741 26.27056463 3.09375225 23.54221436 3.125 20.8125 C3.14175781 20.04357422 3.15851563 19.27464844 3.17578125 18.48242188 C3.21198025 14.26523834 3.19421001 10.7469234 1 7 C-3.13326279 5.68087358 -4.32235273 5.54823515 -8 8 Z " fill="#ffffff" transform="translate(163,51)"/>
</svg>
