<svg width="28" height="30" viewBox="0 0 28 30" fill="none" xmlns="http://www.w3.org/2000/svg">
<path d="M26.8817 16.5504C26.5896 16.2795 26.1369 16.2795 25.8448 16.5504L14.745 26.8442V1.51609C14.745 1.13684 14.4237 0.838867 14.0147 0.838867C13.6058 0.838867 13.2845 1.13684 13.2845 1.51609V26.8307L2.18474 16.5504C1.89264 16.2795 1.43988 16.2795 1.14779 16.5504C0.855686 16.8213 0.855686 17.2412 1.14779 17.5121L13.489 28.9571C13.489 28.9571 13.635 29.0655 13.7226 29.1061C13.8103 29.1332 13.9125 29.1603 14.0001 29.1603C14.0878 29.1603 14.19 29.1468 14.2776 29.1061C14.3653 29.079 14.4383 29.0249 14.5113 28.9571L26.8525 17.5121C27.1446 17.2412 27.1446 16.8213 26.8525 16.5504H26.8817Z" fill="black" stroke="black" stroke-width="0.3" stroke-linejoin="round"/>
</svg>