 <svg
                xmlns="http://www.w3.org/2000/svg"
                xmlns:xlink="http://www.w3.org/1999/xlink"
                width="500"
                zoomAndPan="magnify"
                viewBox="0 0 375 374.999991"
                height="500"
                preserveAspectRatio="xMidYMid meet"
                version="1.0"
            >
                <defs>
                    <g></g>

                    <clipPath id="29997c6cb1">
                        <path
                            d="M 0.304688 165.148438 L 375 165.148438 L 375 209.851562 L 0.304688 209.851562 Z M 0.304688 165.148438"
                            clip-rule="nonzero"
                        ></path>
                    </clipPath>
                </defs>

                <rect
                    x="-37.5"
                    width="450"
                    fill="#ffffff"
                    y="-37.499999"
                    height="449.999989"
                    fill-opacity="1"
                ></rect>

                <rect
                    x="-37.5"
                    width="450"
                    fill="#ffffff"
                    y="-37.499999"
                    height="449.999989"
                    fill-opacity="1"
                ></rect>
                <g
                    fill="#fafafa"
                    fill-opacity="1"
                >
                    <g transform="translate(185.012256, 336.50664)">
                        <g>
                            <path d="M -30.875 -5.5625 L -28.703125 16.125 L -19.109375 -3.453125 L -9.796875 -1.765625 L -5.96875 36.875 L -15.265625 35.1875 L -17 8.84375 L -17.21875 8.796875 L -28.453125 32.8125 L -34.78125 31.671875 L -36.90625 5.25 L -37.140625 5.203125 L -47.953125 29.296875 L -57.234375 27.625 L -40.140625 -7.234375 Z M -30.875 -5.5625"></path>
                        </g>
                    </g>
                </g>

                <g
                    fill="#fafafa"
                    fill-opacity="1"
                >
                    <g transform="translate(140.158429, 327.632042)">
                        <g>
                            <path d="M -28.21875 -0.75 L -12.78125 5.921875 C -12.132812 4.429688 -12.132812 3.113281 -12.78125 1.96875 C -13.4375 0.832031 -14.332031 0.0195312 -15.46875 -0.46875 C -16.664062 -0.988281 -17.675781 -1.234375 -18.5 -1.203125 C -19.332031 -1.179688 -20.394531 -0.898438 -21.6875 -0.359375 L -25.859375 -5.296875 C -22.035156 -8.046875 -17.550781 -8.3125 -12.40625 -6.09375 C -9.195312 -4.695312 -6.914062 -2.40625 -5.5625 0.78125 C -4.21875 3.96875 -4.21875 7.113281 -5.5625 10.21875 C -6.90625 13.320312 -9.203125 15.484375 -12.453125 16.703125 C -15.710938 17.929688 -18.945312 17.847656 -22.15625 16.453125 C -25.53125 14.992188 -27.851562 12.832031 -29.125 9.96875 C -30.40625 7.101562 -30.257812 3.859375 -28.6875 0.234375 C -28.46875 -0.273438 -28.3125 -0.601562 -28.21875 -0.75 Z M -14.734375 9.90625 L -22.828125 6.40625 C -23.148438 7.582031 -23.082031 8.617188 -22.625 9.515625 C -22.175781 10.421875 -21.394531 11.113281 -20.28125 11.59375 C -19.070312 12.113281 -17.96875 12.210938 -16.96875 11.890625 C -15.976562 11.566406 -15.234375 10.90625 -14.734375 9.90625 Z M -14.734375 9.90625"></path>
                        </g>
                    </g>
                </g>

                <g
                    fill="#fafafa"
                    fill-opacity="1"
                >
                    <g transform="translate(118.572147, 318.079393)">
                        <g></g>
                    </g>
                </g>

                <g
                    fill="#fafafa"
                    fill-opacity="1"
                >
                    <g transform="translate(110.708267, 314.711701)">
                        <g>
                            <path d="M -22.65625 -7.5 C -23.6875 -8.28125 -24.8125 -8.878906 -26.03125 -9.296875 C -27.25 -9.722656 -28.195312 -9.960938 -28.875 -10.015625 L -29.90625 -10.078125 L -28.4375 -18.03125 C -28.269531 -18.03125 -28.054688 -18.023438 -27.796875 -18.015625 C -27.546875 -18.003906 -26.988281 -17.925781 -26.125 -17.78125 C -25.269531 -17.644531 -24.398438 -17.4375 -23.515625 -17.15625 C -22.640625 -16.875 -21.5625 -16.394531 -20.28125 -15.71875 C -19 -15.050781 -17.757812 -14.265625 -16.5625 -13.359375 C -13.789062 -11.265625 -11.679688 -8.601562 -10.234375 -5.375 C -8.785156 -2.144531 -8.203125 1.234375 -8.484375 4.765625 C -8.765625 8.296875 -9.953125 11.445312 -12.046875 14.21875 C -13.628906 16.3125 -15.59375 17.984375 -17.9375 19.234375 C -20.28125 20.484375 -22.710938 21.234375 -25.234375 21.484375 C -27.753906 21.742188 -30.304688 21.535156 -32.890625 20.859375 C -35.484375 20.179688 -37.816406 19.0625 -39.890625 17.5 C -41.816406 16.039062 -43.421875 14.46875 -44.703125 12.78125 C -45.984375 11.09375 -46.789062 9.765625 -47.125 8.796875 L -47.625 7.34375 L -40.359375 3.765625 C -40.304688 4.023438 -40.1875 4.382812 -40 4.84375 C -39.8125 5.3125 -39.335938 6.097656 -38.578125 7.203125 C -37.828125 8.304688 -36.9375 9.25 -35.90625 10.03125 C -34.269531 11.269531 -32.597656 12.113281 -30.890625 12.5625 C -29.191406 13.019531 -27.632812 13.097656 -26.21875 12.796875 C -24.800781 12.503906 -23.519531 12.007812 -22.375 11.3125 C -21.226562 10.613281 -20.257812 9.742188 -19.46875 8.703125 C -17.757812 6.441406 -17.070312 3.769531 -17.40625 0.6875 C -17.75 -2.382812 -19.5 -5.113281 -22.65625 -7.5 Z M -22.65625 -7.5"></path>
                        </g>
                    </g>
                </g>

                <g
                    fill="#fafafa"
                    fill-opacity="1"
                >
                    <g transform="translate(86.96023, 297.035014)">
                        <g>
                            <path d="M -1.828125 -2.015625 L -30.625 24.171875 L -36.015625 18.25 L -22.59375 6.046875 L -22.65625 5.984375 C -25.59375 5.835938 -27.851562 4.894531 -29.4375 3.15625 C -30.207031 2.300781 -30.863281 1.351562 -31.40625 0.3125 C -31.945312 -0.726562 -32.332031 -1.84375 -32.5625 -3.03125 C -32.789062 -4.226562 -32.691406 -5.457031 -32.265625 -6.71875 C -31.847656 -7.988281 -31.066406 -9.140625 -29.921875 -10.171875 L -18.609375 -20.46875 L -13.21875 -14.53125 L -22.921875 -5.703125 C -23.816406 -4.890625 -24.34375 -3.894531 -24.5 -2.71875 C -24.65625 -1.539062 -24.316406 -0.492188 -23.484375 0.421875 C -22.671875 1.316406 -21.585938 1.8125 -20.234375 1.90625 C -18.878906 2 -17.773438 1.660156 -16.921875 0.890625 L -7.21875 -7.9375 Z M -1.828125 -2.015625"></path>
                        </g>
                    </g>
                </g>

                <g
                    fill="#fafafa"
                    fill-opacity="1"
                >
                    <g transform="translate(69.44701, 278.411023)">
                        <g>
                            <path d="M -4.734375 -2.109375 C -5.578125 0.984375 -7.453125 3.445312 -10.359375 5.28125 C -13.273438 7.125 -16.316406 7.765625 -19.484375 7.203125 C -22.660156 6.640625 -25.140625 4.941406 -26.921875 2.109375 C -28.566406 -0.492188 -29.101562 -3.15625 -28.53125 -5.875 L -30.40625 -4.703125 L -34.671875 -11.484375 L -15.03125 -23.859375 L -10.8125 -17.15625 L -13.03125 -15.75 L -12.984375 -15.671875 C -10.066406 -15.160156 -7.785156 -13.601562 -6.140625 -11 C -4.359375 -8.164062 -3.890625 -5.203125 -4.734375 -2.109375 Z M -19.046875 -1.125 C -17.628906 -0.789062 -16.242188 -1.046875 -14.890625 -1.890625 C -13.535156 -2.742188 -12.695312 -3.859375 -12.375 -5.234375 C -12.050781 -6.617188 -12.320312 -8.003906 -13.1875 -9.390625 C -14.03125 -10.722656 -15.15625 -11.539062 -16.5625 -11.84375 C -17.96875 -12.15625 -19.335938 -11.890625 -20.671875 -11.046875 C -22.015625 -10.203125 -22.84375 -9.066406 -23.15625 -7.640625 C -23.476562 -6.210938 -23.234375 -4.859375 -22.421875 -3.578125 C -21.597656 -2.273438 -20.472656 -1.457031 -19.046875 -1.125 Z M -19.046875 -1.125"></path>
                        </g>
                    </g>
                </g>

                <g
                    fill="#fafafa"
                    fill-opacity="1"
                >
                    <g transform="translate(55.276828, 255.365595)">
                        <g>
                            <path d="M -1.15625 -2.46875 L -36.390625 14.0625 L -39.796875 6.8125 L -4.5625 -9.71875 Z M -1.15625 -2.46875"></path>
                        </g>
                    </g>
                </g>

                <g
                    fill="#fafafa"
                    fill-opacity="1"
                >
                    <g transform="translate(50.838863, 246.166637)">
                        <g>
                            <path d="M -0.984375 -2.53125 L -37.28125 11.53125 L -40.171875 4.046875 L -3.875 -10.015625 Z M -0.984375 -2.53125"></path>
                        </g>
                    </g>
                </g>

                <g
                    fill="#fafafa"
                    fill-opacity="1"
                >
                    <g transform="translate(46.758179, 237.284135)">
                        <g>
                            <path d="M -16.8125 -22.671875 L -12.546875 -6.390625 C -10.972656 -6.804688 -9.9375 -7.625 -9.4375 -8.84375 C -8.945312 -10.0625 -8.859375 -11.269531 -9.171875 -12.46875 C -9.503906 -13.726562 -9.9375 -14.675781 -10.46875 -15.3125 C -11 -15.957031 -11.878906 -16.613281 -13.109375 -17.28125 L -11.796875 -23.625 C -7.265625 -22.3125 -4.285156 -18.945312 -2.859375 -13.53125 C -1.960938 -10.144531 -2.351562 -6.9375 -4.03125 -3.90625 C -5.71875 -0.875 -8.195312 1.066406 -11.46875 1.921875 C -14.738281 2.785156 -17.859375 2.3125 -20.828125 0.5 C -23.804688 -1.300781 -25.742188 -3.894531 -26.640625 -7.28125 C -27.566406 -10.832031 -27.289062 -13.992188 -25.8125 -16.765625 C -24.34375 -19.546875 -21.703125 -21.4375 -17.890625 -22.4375 C -17.347656 -22.582031 -16.988281 -22.660156 -16.8125 -22.671875 Z M -16.890625 -5.484375 L -19.140625 -14.015625 C -20.253906 -13.535156 -21.023438 -12.84375 -21.453125 -11.9375 C -21.890625 -11.03125 -21.953125 -9.988281 -21.640625 -8.8125 C -21.304688 -7.539062 -20.703125 -6.613281 -19.828125 -6.03125 C -18.960938 -5.445312 -17.984375 -5.265625 -16.890625 -5.484375 Z M -16.890625 -5.484375"></path>
                        </g>
                    </g>
                </g>

                <g
                    fill="#fafafa"
                    fill-opacity="1"
                >
                    <g transform="translate(40.455098, 215.104197)">
                        <g>
                            <path d="M -0.25 -2.703125 L -23.375 -0.546875 L -24.125 -8.53125 L -21.6875 -8.765625 L -21.6875 -8.84375 C -23.957031 -10.71875 -25.203125 -12.828125 -25.421875 -15.171875 C -25.523438 -16.316406 -25.476562 -17.46875 -25.28125 -18.625 C -25.09375 -19.78125 -24.726562 -20.90625 -24.1875 -22 C -23.65625 -23.09375 -22.835938 -24.015625 -21.734375 -24.765625 C -20.640625 -25.515625 -19.328125 -25.960938 -17.796875 -26.109375 L -2.5625 -27.53125 L -1.828125 -19.5625 L -14.890625 -18.34375 C -16.097656 -18.226562 -17.113281 -17.742188 -17.9375 -16.890625 C -18.769531 -16.046875 -19.128906 -15.007812 -19.015625 -13.78125 C -18.898438 -12.570312 -18.332031 -11.523438 -17.3125 -10.640625 C -16.289062 -9.753906 -15.207031 -9.363281 -14.0625 -9.46875 L -1 -10.6875 Z M -0.25 -2.703125"></path>
                        </g>
                    </g>
                </g>

                <g
                    fill="#fafafa"
                    fill-opacity="1"
                >
                    <g transform="translate(37.657731, 189.692849)">
                        <g>
                            <path d="M 5.828125 -1.203125 L 3.140625 -8 C 5.242188 -9.039062 6.421875 -11.050781 6.671875 -14.03125 C 6.785156 -15.40625 6.445312 -16.722656 5.65625 -17.984375 C 4.863281 -19.253906 3.550781 -19.96875 1.71875 -20.125 L 0 -20.265625 C 1.4375 -18.710938 2.003906 -16.113281 1.703125 -12.46875 C 1.429688 -9.132812 0.03125 -6.484375 -2.5 -4.515625 C -5.039062 -2.554688 -8.023438 -1.71875 -11.453125 -2 C -14.878906 -2.28125 -17.691406 -3.597656 -19.890625 -5.953125 C -22.097656 -8.316406 -23.066406 -11.164062 -22.796875 -14.5 C -22.546875 -17.476562 -21.414062 -19.890625 -19.40625 -21.734375 L -19.390625 -21.875 L -21.46875 -22.046875 L -20.8125 -30.03125 L 2.96875 -28.0625 C 6.726562 -27.75 9.523438 -26.253906 11.359375 -23.578125 C 13.191406 -20.910156 13.941406 -17.535156 13.609375 -13.453125 C 13.054688 -6.835938 10.460938 -2.753906 5.828125 -1.203125 Z M -14.546875 -12.34375 C -13.617188 -11.226562 -12.359375 -10.601562 -10.765625 -10.46875 C -9.171875 -10.34375 -7.828125 -10.734375 -6.734375 -11.640625 C -5.648438 -12.546875 -5.039062 -13.816406 -4.90625 -15.453125 C -4.769531 -17.015625 -5.171875 -18.34375 -6.109375 -19.4375 C -7.046875 -20.53125 -8.296875 -21.140625 -9.859375 -21.265625 C -11.453125 -21.398438 -12.800781 -20.988281 -13.90625 -20.03125 C -15.019531 -19.070312 -15.640625 -17.84375 -15.765625 -16.34375 C -15.890625 -14.800781 -15.484375 -13.46875 -14.546875 -12.34375 Z M -14.546875 -12.34375"></path>
                        </g>
                    </g>
                </g>

                <g
                    fill="#fafafa"
                    fill-opacity="1"
                >
                    <g transform="translate(39.646776, 163.143998)">
                        <g>
                            <path d="M -3.6875 -27.984375 L -7.859375 -11.671875 C -6.285156 -11.273438 -4.988281 -11.488281 -3.96875 -12.3125 C -2.945312 -13.132812 -2.28125 -14.144531 -1.96875 -15.34375 C -1.644531 -16.601562 -1.554688 -17.644531 -1.703125 -18.46875 C -1.859375 -19.289062 -2.316406 -20.289062 -3.078125 -21.46875 L 1.171875 -26.375 C 4.492188 -23.03125 5.460938 -18.644531 4.078125 -13.21875 C 3.210938 -9.820312 1.3125 -7.207031 -1.625 -5.375 C -4.570312 -3.539062 -7.679688 -3.039062 -10.953125 -3.875 C -14.234375 -4.71875 -16.734375 -6.648438 -18.453125 -9.671875 C -20.171875 -12.691406 -20.597656 -15.898438 -19.734375 -19.296875 C -18.828125 -22.859375 -17.054688 -25.492188 -14.421875 -27.203125 C -11.796875 -28.910156 -8.570312 -29.28125 -4.75 -28.3125 C -4.21875 -28.164062 -3.863281 -28.054688 -3.6875 -27.984375 Z M -12.09375 -12.984375 L -9.90625 -21.53125 C -11.132812 -21.664062 -12.15625 -21.4375 -12.96875 -20.84375 C -13.78125 -20.257812 -14.335938 -19.382812 -14.640625 -18.21875 C -14.960938 -16.9375 -14.882812 -15.828125 -14.40625 -14.890625 C -13.9375 -13.960938 -13.164062 -13.328125 -12.09375 -12.984375 Z M -12.09375 -12.984375"></path>
                        </g>
                    </g>
                </g>

                <g
                    fill="#fafafa"
                    fill-opacity="1"
                >
                    <g transform="translate(45.680666, 140.326385)">
                        <g></g>
                    </g>
                </g>

                <g
                    fill="#fafafa"
                    fill-opacity="1"
                >
                    <g transform="translate(47.389232, 132.050242)">
                        <g>
                            <path d="M -15.828125 -10 C -20.546875 -12.625 -23.648438 -16.445312 -25.140625 -21.46875 C -26.628906 -26.5 -26.109375 -31.285156 -23.578125 -35.828125 C -21.046875 -40.390625 -17.265625 -43.363281 -12.234375 -44.75 C -7.210938 -46.132812 -2.328125 -45.507812 2.421875 -42.875 C 7.203125 -40.21875 10.347656 -36.414062 11.859375 -31.46875 C 13.378906 -26.519531 12.84375 -21.710938 10.25 -17.046875 C 7.59375 -12.265625 3.789062 -9.222656 -1.15625 -7.921875 C -6.101562 -6.617188 -10.992188 -7.3125 -15.828125 -10 Z M -11.375 -18.03125 C -9.65625 -17.070312 -7.941406 -16.460938 -6.234375 -16.203125 C -4.535156 -15.953125 -2.832031 -16.210938 -1.125 -16.984375 C 0.582031 -17.765625 1.972656 -19.117188 3.046875 -21.046875 C 4.578125 -23.816406 4.785156 -26.429688 3.671875 -28.890625 C 2.554688 -31.359375 0.65625 -33.34375 -2.03125 -34.84375 C -4.695312 -36.320312 -7.382812 -36.875 -10.09375 -36.5 C -12.8125 -36.125 -14.921875 -34.578125 -16.421875 -31.859375 C -17.921875 -29.160156 -18.117188 -26.550781 -17.015625 -24.03125 C -15.921875 -21.507812 -14.039062 -19.507812 -11.375 -18.03125 Z M -11.375 -18.03125"></path>
                        </g>
                    </g>
                </g>

                <g
                    fill="#fafafa"
                    fill-opacity="1"
                >
                    <g transform="translate(64.422138, 101.44651)">
                        <g>
                            <path d="M -10.921875 -22.921875 L -2.53125 -15.71875 C -0.789062 -14.226562 0.664062 -13.429688 1.84375 -13.328125 C 3.019531 -13.234375 4.148438 -13.816406 5.234375 -15.078125 C 6.316406 -16.335938 6.71875 -17.539062 6.4375 -18.6875 C 6.164062 -19.84375 5.160156 -21.164062 3.421875 -22.65625 L -4.96875 -29.859375 L 0.25 -35.9375 L 10.109375 -27.484375 C 13.046875 -24.960938 14.503906 -22.382812 14.484375 -19.75 C 14.460938 -17.125 13.023438 -14.148438 10.171875 -10.828125 C 7.328125 -7.503906 4.601562 -5.632812 2 -5.21875 C -0.59375 -4.8125 -3.359375 -5.867188 -6.296875 -8.390625 L -16.15625 -16.84375 Z M -10.921875 -22.921875"></path>
                        </g>
                    </g>
                </g>

                <g
                    fill="#fafafa"
                    fill-opacity="1"
                >
                    <g transform="translate(81.055611, 82.009364)">
                        <g>
                            <path d="M 2.0625 -1.78125 L -13.125 -19.34375 L -7.0625 -24.578125 L -4.875 -22.046875 L -4.828125 -22.109375 C -4.847656 -22.242188 -4.863281 -22.421875 -4.875 -22.640625 C -4.894531 -22.867188 -4.882812 -23.300781 -4.84375 -23.9375 C -4.800781 -24.570312 -4.703125 -25.195312 -4.546875 -25.8125 C -4.398438 -26.425781 -4.113281 -27.101562 -3.6875 -27.84375 C -3.257812 -28.59375 -2.722656 -29.242188 -2.078125 -29.796875 C -1.421875 -30.367188 -0.691406 -30.835938 0.109375 -31.203125 C 0.910156 -31.578125 1.535156 -31.800781 1.984375 -31.875 L 2.71875 -32.03125 L 4.625 -24.6875 C 3.320312 -24.675781 2 -24.085938 0.65625 -22.921875 C -0.0820312 -22.285156 -0.570312 -21.582031 -0.8125 -20.8125 C -1.0625 -20.039062 -1.097656 -19.332031 -0.921875 -18.6875 C -0.742188 -18.039062 -0.5625 -17.519531 -0.375 -17.125 C -0.195312 -16.726562 -0.0234375 -16.441406 0.140625 -16.265625 L 8.125 -7.015625 Z M 2.0625 -1.78125"></path>
                        </g>
                    </g>
                </g>

                <g
                    fill="#fafafa"
                    fill-opacity="1"
                >
                    <g transform="translate(95.045347, 69.604752)">
                        <g>
                            <path d="M -2.59375 -27 C -1.488281 -27.726562 -0.316406 -28.328125 0.921875 -28.796875 C 2.171875 -29.265625 3.144531 -29.550781 3.84375 -29.65625 L 4.890625 -29.8125 L 5.609375 -23.984375 C 3.566406 -23.773438 1.867188 -23.222656 0.515625 -22.328125 C -0.234375 -21.816406 -0.707031 -21.375 -0.90625 -21 C -1.113281 -20.632812 -1.066406 -20.226562 -0.765625 -19.78125 C -0.703125 -19.675781 -0.625 -19.582031 -0.53125 -19.5 C -0.445312 -19.414062 -0.335938 -19.351562 -0.203125 -19.3125 C -0.0664062 -19.28125 0.0507812 -19.25 0.15625 -19.21875 C 0.269531 -19.195312 0.425781 -19.195312 0.625 -19.21875 C 0.820312 -19.25 0.976562 -19.273438 1.09375 -19.296875 C 1.207031 -19.316406 1.390625 -19.359375 1.640625 -19.421875 C 1.890625 -19.492188 2.078125 -19.539062 2.203125 -19.5625 C 2.328125 -19.582031 2.535156 -19.632812 2.828125 -19.71875 C 3.117188 -19.8125 3.328125 -19.882812 3.453125 -19.9375 C 4.390625 -20.226562 5.238281 -20.425781 6 -20.53125 C 6.757812 -20.644531 7.617188 -20.675781 8.578125 -20.625 C 9.535156 -20.570312 10.429688 -20.296875 11.265625 -19.796875 C 12.109375 -19.304688 12.84375 -18.597656 13.46875 -17.671875 C 16.394531 -13.273438 14.804688 -9.046875 8.703125 -4.984375 C 7.316406 -4.066406 5.859375 -3.40625 4.328125 -3 C 2.804688 -2.601562 1.625 -2.429688 0.78125 -2.484375 L -0.46875 -2.609375 L -0.8125 -8.96875 C -0.5 -8.925781 -0.0976562 -8.894531 0.390625 -8.875 C 0.878906 -8.863281 1.6875 -8.9375 2.8125 -9.09375 C 3.945312 -9.25 4.828125 -9.53125 5.453125 -9.9375 C 6.828125 -10.863281 7.203125 -11.789062 6.578125 -12.71875 C 6.296875 -13.132812 5.898438 -13.347656 5.390625 -13.359375 C 4.878906 -13.367188 4.101562 -13.238281 3.0625 -12.96875 C 2.03125 -12.707031 1.191406 -12.550781 0.546875 -12.5 C -1.078125 -12.320312 -2.503906 -12.394531 -3.734375 -12.71875 C -4.972656 -13.039062 -6.023438 -13.859375 -6.890625 -15.171875 C -8.203125 -17.128906 -8.457031 -19.15625 -7.65625 -21.25 C -6.863281 -23.351562 -5.175781 -25.269531 -2.59375 -27 Z M -2.59375 -27"></path>
                        </g>
                    </g>
                </g>

                <g
                    fill="#fafafa"
                    fill-opacity="1"
                >
                    <g transform="translate(110.006089, 59.091763)">
                        <g>
                            <path d="M 19.078125 -20.8125 L 3.90625 -13.53125 C 4.613281 -12.0625 5.609375 -11.195312 6.890625 -10.9375 C 8.179688 -10.6875 9.382812 -10.832031 10.5 -11.375 C 11.675781 -11.9375 12.53125 -12.535156 13.0625 -13.171875 C 13.59375 -13.804688 14.070312 -14.796875 14.5 -16.140625 L 20.96875 -16.046875 C 20.539062 -11.347656 17.800781 -7.789062 12.75 -5.375 C 9.59375 -3.851562 6.363281 -3.628906 3.0625 -4.703125 C -0.226562 -5.785156 -2.601562 -7.847656 -4.0625 -10.890625 C -5.53125 -13.941406 -5.65625 -17.097656 -4.4375 -20.359375 C -3.226562 -23.617188 -1.046875 -26.007812 2.109375 -27.53125 C 5.421875 -29.113281 8.578125 -29.445312 11.578125 -28.53125 C 14.585938 -27.613281 16.945312 -25.375 18.65625 -21.8125 C 18.894531 -21.3125 19.035156 -20.976562 19.078125 -20.8125 Z M 2.1875 -17.625 L 10.140625 -21.4375 C 9.460938 -22.445312 8.632812 -23.078125 7.65625 -23.328125 C 6.675781 -23.578125 5.644531 -23.441406 4.5625 -22.921875 C 3.363281 -22.347656 2.5625 -21.578125 2.15625 -20.609375 C 1.75 -19.640625 1.757812 -18.644531 2.1875 -17.625 Z M 2.1875 -17.625"></path>
                        </g>
                    </g>
                </g>

                <g
                    fill="#fafafa"
                    fill-opacity="1"
                >
                    <g transform="translate(131.326082, 49.057917)">
                        <g>
                            <path d="M 2.5625 -0.890625 L -10.234375 -37.640625 L -2.65625 -40.28125 L 10.140625 -3.53125 Z M 2.5625 -0.890625"></path>
                        </g>
                    </g>
                </g>

                <g
                    fill="#fafafa"
                    fill-opacity="1"
                >
                    <g transform="translate(140.290398, 45.242563)">
                        <g>
                            <path d="M 3.359375 -24.53125 L 11.625 -13.4375 L 14.421875 -27 L 23.6875 -29.0625 L 16.5625 -3.6875 L 11.265625 -2.5 L -5.921875 -22.46875 Z M 3.359375 -24.53125"></path>
                        </g>
                    </g>
                </g>

                <g
                    fill="#fafafa"
                    fill-opacity="1"
                >
                    <g transform="translate(163.956829, 39.687759)">
                        <g>
                            <path d="M 25.53125 -12.03125 L 8.734375 -11.03125 C 8.835938 -9.40625 9.4375 -8.226562 10.53125 -7.5 C 11.632812 -6.78125 12.800781 -6.457031 14.03125 -6.53125 C 15.332031 -6.613281 16.347656 -6.847656 17.078125 -7.234375 C 17.816406 -7.628906 18.632812 -8.367188 19.53125 -9.453125 L 25.484375 -6.890625 C 23.316406 -2.722656 19.429688 -0.472656 13.828125 -0.140625 C 10.335938 0.0664062 7.269531 -0.945312 4.625 -3.1875 C 1.976562 -5.4375 0.554688 -8.25 0.359375 -11.625 C 0.160156 -15 1.238281 -17.960938 3.59375 -20.515625 C 5.957031 -23.078125 8.882812 -24.460938 12.375 -24.671875 C 16.050781 -24.890625 19.101562 -24.003906 21.53125 -22.015625 C 23.957031 -20.023438 25.285156 -17.0625 25.515625 -13.125 C 25.546875 -12.570312 25.550781 -12.207031 25.53125 -12.03125 Z M 8.703125 -15.46875 L 17.515625 -15.984375 C 17.265625 -17.179688 16.734375 -18.082031 15.921875 -18.6875 C 15.117188 -19.289062 14.113281 -19.554688 12.90625 -19.484375 C 11.59375 -19.398438 10.5625 -18.988281 9.8125 -18.25 C 9.0625 -17.519531 8.691406 -16.59375 8.703125 -15.46875 Z M 8.703125 -15.46875"></path>
                        </g>
                    </g>
                </g>

                <g
                    fill="#fafafa"
                    fill-opacity="1"
                >
                    <g transform="translate(187.188928, 38.211298)">
                        <g>
                            <path d="M 14.703125 -22.78125 C 16.023438 -22.675781 17.316406 -22.421875 18.578125 -22.015625 C 19.847656 -21.609375 20.789062 -21.226562 21.40625 -20.875 L 22.328125 -20.34375 L 19.265625 -15.328125 C 17.546875 -16.429688 15.875 -17.046875 14.25 -17.171875 C 13.351562 -17.253906 12.707031 -17.210938 12.3125 -17.046875 C 11.925781 -16.878906 11.710938 -16.523438 11.671875 -15.984375 C 11.660156 -15.859375 11.660156 -15.738281 11.671875 -15.625 C 11.691406 -15.507812 11.742188 -15.394531 11.828125 -15.28125 C 11.910156 -15.175781 11.984375 -15.078125 12.046875 -14.984375 C 12.117188 -14.898438 12.242188 -14.804688 12.421875 -14.703125 C 12.597656 -14.609375 12.734375 -14.53125 12.828125 -14.46875 C 12.929688 -14.414062 13.097656 -14.332031 13.328125 -14.21875 C 13.566406 -14.113281 13.742188 -14.03125 13.859375 -13.96875 C 13.972656 -13.914062 14.164062 -13.832031 14.4375 -13.71875 C 14.71875 -13.613281 14.929688 -13.539062 15.078125 -13.5 C 15.992188 -13.144531 16.78125 -12.773438 17.4375 -12.390625 C 18.101562 -12.003906 18.796875 -11.492188 19.515625 -10.859375 C 20.242188 -10.234375 20.78125 -9.460938 21.125 -8.546875 C 21.476562 -7.640625 21.613281 -6.628906 21.53125 -5.515625 C 21.101562 -0.253906 17.234375 2.078125 9.921875 1.484375 C 8.265625 1.347656 6.707031 0.960938 5.25 0.328125 C 3.800781 -0.296875 2.769531 -0.890625 2.15625 -1.453125 L 1.25 -2.34375 L 4.921875 -7.546875 C 5.148438 -7.316406 5.445312 -7.046875 5.8125 -6.734375 C 6.1875 -6.421875 6.863281 -5.972656 7.84375 -5.390625 C 8.820312 -4.804688 9.6875 -4.484375 10.4375 -4.421875 C 12.082031 -4.285156 12.953125 -4.773438 13.046875 -5.890625 C 13.085938 -6.390625 12.910156 -6.800781 12.515625 -7.125 C 12.117188 -7.457031 11.429688 -7.84375 10.453125 -8.28125 C 9.472656 -8.71875 8.707031 -9.113281 8.15625 -9.46875 C 6.78125 -10.332031 5.707031 -11.269531 4.9375 -12.28125 C 4.175781 -13.300781 3.859375 -14.597656 3.984375 -16.171875 C 4.179688 -18.515625 5.238281 -20.265625 7.15625 -21.421875 C 9.082031 -22.585938 11.597656 -23.039062 14.703125 -22.78125 Z M 14.703125 -22.78125"></path>
                        </g>
                    </g>
                </g>

                <g
                    fill="#fafafa"
                    fill-opacity="1"
                >
                    <g transform="translate(205.879849, 39.80072)">
                        <g></g>
                    </g>
                </g>

                <g
                    fill="#fafafa"
                    fill-opacity="1"
                >
                    <g transform="translate(214.568934, 40.730884)">
                        <g>
                            <path d="M 8.671875 -28.59375 L 10.75 -35.765625 L 35.953125 -28.4375 L 33.875 -21.265625 L 25.375 -23.734375 L 17.046875 4.953125 L 8.875 2.578125 L 17.203125 -26.109375 Z M 8.671875 -28.59375"></path>
                        </g>
                    </g>
                </g>

                <g
                    fill="#fafafa"
                    fill-opacity="1"
                >
                    <g transform="translate(236.545154, 46.626408)">
                        <g>
                            <path d="M 5.609375 -0.375 C 4.273438 -3.550781 4.378906 -6.757812 5.921875 -10 C 7.472656 -13.238281 9.957031 -15.320312 13.375 -16.25 C 16.800781 -17.175781 20.300781 -16.785156 23.875 -15.078125 C 27.382812 -13.398438 29.835938 -10.9375 31.234375 -7.6875 C 32.640625 -4.4375 32.570312 -1.207031 31.03125 2 C 29.5 5.207031 27.054688 7.289062 23.703125 8.25 C 20.359375 9.207031 16.878906 8.820312 13.265625 7.09375 C 9.503906 5.289062 6.953125 2.800781 5.609375 -0.375 Z M 16.71875 -9.21875 C 15.332031 -8.75 14.296875 -7.789062 13.609375 -6.34375 C 12.921875 -4.90625 12.804688 -3.507812 13.265625 -2.15625 C 13.734375 -0.8125 14.703125 0.207031 16.171875 0.90625 C 17.597656 1.59375 18.988281 1.6875 20.34375 1.1875 C 21.695312 0.695312 22.710938 -0.253906 23.390625 -1.671875 C 24.078125 -3.117188 24.171875 -4.523438 23.671875 -5.890625 C 23.171875 -7.265625 22.238281 -8.28125 20.875 -8.9375 C 19.488281 -9.59375 18.101562 -9.6875 16.71875 -9.21875 Z M 16.71875 -9.21875"></path>
                        </g>
                    </g>
                </g>

                <g
                    fill="#fafafa"
                    fill-opacity="1"
                >
                    <g transform="translate(259.992162, 58.157504)">
                        <g></g>
                    </g>
                </g>

                <g
                    fill="#fafafa"
                    fill-opacity="1"
                >
                    <g transform="translate(267.697682, 61.883931)">
                        <g>
                            <path d="M 22.28125 8.53125 C 23.269531 9.363281 24.363281 10.015625 25.5625 10.484375 C 26.757812 10.960938 27.691406 11.242188 28.359375 11.328125 L 29.40625 11.4375 L 27.5625 19.3125 C 27.40625 19.3125 27.195312 19.300781 26.9375 19.28125 C 26.6875 19.257812 26.132812 19.160156 25.28125 18.984375 C 24.425781 18.804688 23.566406 18.550781 22.703125 18.21875 C 21.835938 17.894531 20.78125 17.367188 19.53125 16.640625 C 18.289062 15.921875 17.09375 15.082031 15.9375 14.125 C 13.269531 11.894531 11.285156 9.132812 9.984375 5.84375 C 8.679688 2.550781 8.253906 -0.847656 8.703125 -4.359375 C 9.148438 -7.878906 10.484375 -10.972656 12.703125 -13.640625 C 14.378906 -15.660156 16.414062 -17.238281 18.8125 -18.375 C 21.207031 -19.519531 23.664062 -20.160156 26.1875 -20.296875 C 28.71875 -20.441406 31.257812 -20.113281 33.8125 -19.3125 C 36.375 -18.519531 38.65625 -17.289062 40.65625 -15.625 C 42.507812 -14.09375 44.035156 -12.453125 45.234375 -10.703125 C 46.441406 -8.960938 47.191406 -7.597656 47.484375 -6.609375 L 47.90625 -5.15625 L 40.5 -1.90625 C 40.4375 -2.175781 40.328125 -2.546875 40.171875 -3.015625 C 40.015625 -3.484375 39.582031 -4.285156 38.875 -5.421875 C 38.164062 -6.554688 37.316406 -7.539062 36.328125 -8.375 C 34.753906 -9.6875 33.125 -10.601562 31.4375 -11.125 C 29.757812 -11.65625 28.207031 -11.804688 26.78125 -11.578125 C 25.351562 -11.347656 24.046875 -10.910156 22.859375 -10.265625 C 21.679688 -9.617188 20.675781 -8.796875 19.84375 -7.796875 C 18.039062 -5.617188 17.234375 -2.988281 17.421875 0.09375 C 17.617188 3.1875 19.238281 6 22.28125 8.53125 Z M 22.28125 8.53125"></path>
                        </g>
                    </g>
                </g>

                <g
                    fill="#fafafa"
                    fill-opacity="1"
                >
                    <g transform="translate(290.547985, 81.035749)">
                        <g>
                            <path d="M 1.78125 2.046875 L 19.3125 -13.171875 L 24.5625 -7.109375 L 22.03125 -4.921875 L 22.09375 -4.859375 C 22.226562 -4.890625 22.40625 -4.910156 22.625 -4.921875 C 22.851562 -4.941406 23.285156 -4.929688 23.921875 -4.890625 C 24.566406 -4.847656 25.195312 -4.75 25.8125 -4.59375 C 26.425781 -4.445312 27.101562 -4.160156 27.84375 -3.734375 C 28.59375 -3.304688 29.242188 -2.773438 29.796875 -2.140625 C 30.367188 -1.472656 30.835938 -0.742188 31.203125 0.046875 C 31.578125 0.847656 31.800781 1.476562 31.875 1.9375 L 32.03125 2.640625 L 24.703125 4.5625 C 24.691406 3.257812 24.101562 1.9375 22.9375 0.59375 C 22.300781 -0.132812 21.597656 -0.617188 20.828125 -0.859375 C 20.054688 -1.109375 19.34375 -1.144531 18.6875 -0.96875 C 18.039062 -0.789062 17.519531 -0.609375 17.125 -0.421875 C 16.726562 -0.234375 16.4375 -0.0625 16.25 0.09375 L 7.03125 8.109375 Z M 1.78125 2.046875"></path>
                        </g>
                    </g>
                </g>

                <g
                    fill="#fafafa"
                    fill-opacity="1"
                >
                    <g transform="translate(303.045389, 94.740319)">
                        <g>
                            <path d="M 23.046875 16.296875 L 13.90625 2.171875 C 12.539062 3.054688 11.8125 4.148438 11.71875 5.453125 C 11.632812 6.765625 11.929688 7.941406 12.609375 8.984375 C 13.316406 10.078125 14.019531 10.84375 14.71875 11.28125 C 15.425781 11.726562 16.46875 12.078125 17.84375 12.328125 L 18.5625 18.78125 C 13.851562 18.9375 9.976562 16.660156 6.9375 11.953125 C 5.039062 9.015625 4.414062 5.84375 5.0625 2.4375 C 5.707031 -0.957031 7.445312 -3.570312 10.28125 -5.40625 C 13.125 -7.25 16.242188 -7.773438 19.640625 -6.984375 C 23.035156 -6.191406 25.679688 -4.328125 27.578125 -1.390625 C 29.578125 1.703125 30.304688 4.796875 29.765625 7.890625 C 29.222656 10.984375 27.296875 13.601562 23.984375 15.75 C 23.523438 16.050781 23.210938 16.234375 23.046875 16.296875 Z M 17.75 -0.046875 L 22.546875 7.359375 C 23.460938 6.554688 23.984375 5.65625 24.109375 4.65625 C 24.234375 3.65625 23.96875 2.648438 23.3125 1.640625 C 22.59375 0.523438 21.726562 -0.171875 20.71875 -0.453125 C 19.71875 -0.734375 18.726562 -0.597656 17.75 -0.046875 Z M 17.75 -0.046875"></path>
                        </g>
                    </g>
                </g>

                <g
                    fill="#fafafa"
                    fill-opacity="1"
                >
                    <g transform="translate(315.977098, 113.79968)">
                        <g>
                            <path d="M 4.34375 2.8125 C 5.65625 -0.113281 7.894531 -2.253906 11.0625 -3.609375 C 14.226562 -4.972656 17.332031 -5.128906 20.375 -4.078125 C 23.414062 -3.023438 25.597656 -0.96875 26.921875 2.09375 C 28.148438 4.925781 28.265625 7.640625 27.265625 10.234375 L 29.3125 9.359375 L 32.484375 16.71875 L 11.15625 25.90625 L 8.015625 18.625 L 10.421875 17.59375 L 10.390625 17.515625 C 7.597656 16.546875 5.585938 14.644531 4.359375 11.8125 C 3.035156 8.75 3.03125 5.75 4.34375 2.8125 Z M 18.65625 4.0625 C 17.300781 3.507812 15.890625 3.546875 14.421875 4.171875 C 12.953125 4.804688 11.945312 5.78125 11.40625 7.09375 C 10.875 8.414062 10.929688 9.828125 11.578125 11.328125 C 12.203125 12.765625 13.1875 13.742188 14.53125 14.265625 C 15.875 14.796875 17.265625 14.75 18.703125 14.125 C 20.171875 13.5 21.171875 12.503906 21.703125 11.140625 C 22.234375 9.773438 22.195312 8.398438 21.59375 7.015625 C 20.988281 5.597656 20.007812 4.613281 18.65625 4.0625 Z M 18.65625 4.0625"></path>
                        </g>
                    </g>
                </g>

                <g
                    fill="#fafafa"
                    fill-opacity="1"
                >
                    <g transform="translate(326.461538, 138.579615)">
                        <g>
                            <path d="M 23.46875 -2.234375 L 31.796875 -4.53125 L 33.921875 3.171875 L 25.59375 5.46875 L 26.90625 10.1875 L 21.015625 11.8125 L 19.703125 7.09375 L 12.59375 9.046875 C 10.519531 9.617188 9.644531 10.488281 9.96875 11.65625 C 10.050781 11.945312 10.191406 12.238281 10.390625 12.53125 C 10.597656 12.820312 10.785156 13.035156 10.953125 13.171875 L 11.203125 13.390625 L 5.484375 17.03125 C 4.109375 15.625 3.128906 13.859375 2.546875 11.734375 C 2.148438 10.285156 2.054688 8.96875 2.265625 7.78125 C 2.484375 6.59375 2.945312 5.609375 3.65625 4.828125 C 4.375 4.054688 5.171875 3.425781 6.046875 2.9375 C 6.921875 2.445312 7.894531 2.054688 8.96875 1.765625 L 17.578125 -0.609375 L 16.6875 -3.859375 L 22.578125 -5.484375 Z M 23.46875 -2.234375"></path>
                        </g>
                    </g>
                </g>

                <g
                    fill="#fafafa"
                    fill-opacity="1"
                >
                    <g transform="translate(330.714096, 151.972336)">
                        <g>
                            <path d="M 14.109375 24.453125 L 11.71875 7.796875 C 10.113281 8.023438 8.992188 8.710938 8.359375 9.859375 C 7.734375 11.015625 7.507812 12.207031 7.6875 13.4375 C 7.875 14.71875 8.191406 15.707031 8.640625 16.40625 C 9.097656 17.113281 9.898438 17.867188 11.046875 18.671875 L 9 24.8125 C 4.65625 23 2.085938 19.316406 1.296875 13.765625 C 0.796875 10.296875 1.554688 7.148438 3.578125 4.328125 C 5.597656 1.515625 8.28125 -0.128906 11.625 -0.609375 C 14.96875 -1.085938 18.007812 -0.257812 20.75 1.875 C 23.5 4.007812 25.125 6.8125 25.625 10.28125 C 26.144531 13.914062 25.515625 17.023438 23.734375 19.609375 C 21.960938 22.203125 19.117188 23.78125 15.203125 24.34375 C 14.660156 24.414062 14.296875 24.453125 14.109375 24.453125 Z M 16.140625 7.375 L 17.390625 16.109375 C 18.566406 15.765625 19.421875 15.164062 19.953125 14.3125 C 20.484375 13.457031 20.664062 12.429688 20.5 11.234375 C 20.3125 9.921875 19.816406 8.925781 19.015625 8.25 C 18.210938 7.570312 17.253906 7.28125 16.140625 7.375 Z M 16.140625 7.375"></path>
                        </g>
                    </g>
                </g>

                <g
                    fill="#fafafa"
                    fill-opacity="1"
                >
                    <g transform="translate(333.860155, 175.364037)">
                        <g></g>
                    </g>
                </g>

                <g
                    fill="#fafafa"
                    fill-opacity="1"
                >
                    <g transform="translate(335.303956, 183.730607)">
                        <g>
                            <path d="M 21.828125 13.640625 L -1.203125 11.15625 L -0.296875 2.703125 L 36.828125 6.703125 L 35.921875 15.15625 L 11.296875 27.4375 L 11.296875 27.515625 L 34.328125 30 L 33.40625 38.46875 L -3.71875 34.46875 L -2.796875 26 L 21.828125 13.734375 Z M 21.828125 13.640625"></path>
                        </g>
                    </g>
                </g>

                <g
                    fill="#fafafa"
                    fill-opacity="1"
                >
                    <g transform="translate(331.738194, 216.398437)">
                        <g>
                            <path d="M 2.4375 28.125 L 7.328125 12.015625 C 5.773438 11.546875 4.46875 11.695312 3.40625 12.46875 C 2.34375 13.25 1.628906 14.234375 1.265625 15.421875 C 0.890625 16.671875 0.757812 17.707031 0.875 18.53125 C 0.988281 19.363281 1.394531 20.382812 2.09375 21.59375 L -2.359375 26.296875 C -5.515625 22.816406 -6.28125 18.394531 -4.65625 13.03125 C -3.632812 9.675781 -1.613281 7.144531 1.40625 5.4375 C 4.425781 3.738281 7.550781 3.378906 10.78125 4.359375 C 14.019531 5.347656 16.429688 7.390625 18.015625 10.484375 C 19.597656 13.585938 19.878906 16.816406 18.859375 20.171875 C 17.796875 23.691406 15.910156 26.242188 13.203125 27.828125 C 10.492188 29.410156 7.25 29.628906 3.46875 28.484375 C 2.9375 28.316406 2.59375 28.195312 2.4375 28.125 Z M 11.515625 13.515625 L 8.9375 21.96875 C 10.144531 22.15625 11.164062 21.972656 12 21.421875 C 12.84375 20.867188 13.441406 20.015625 13.796875 18.859375 C 14.179688 17.597656 14.15625 16.488281 13.71875 15.53125 C 13.289062 14.570312 12.554688 13.898438 11.515625 13.515625 Z M 11.515625 13.515625"></path>
                        </g>
                    </g>
                </g>

                <g
                    fill="#fafafa"
                    fill-opacity="1"
                >
                    <g transform="translate(326.483272, 238.52149)">
                        <g>
                            <path d="M -8.21875 14.84375 L -5.59375 10.109375 L 20.75 10.4375 L 16.28125 18.515625 L 2.59375 17.40625 L 10.84375 28.359375 L 8.171875 33.171875 L -5.46875 31.984375 L 2.75 43 L -1.71875 51.078125 L -16.015625 28.953125 L -13.390625 24.203125 L -0.296875 25.34375 Z M -8.21875 14.84375"></path>
                        </g>
                    </g>
                </g>

                <g
                    fill="#fafafa"
                    fill-opacity="1"
                >
                    <g transform="translate(306.140166, 273.303905)">
                        <g></g>
                    </g>
                </g>

                <g
                    fill="#fafafa"
                    fill-opacity="1"
                >
                    <g transform="translate(301.7105, 280.593106)">
                        <g>
                            <path d="M -10.359375 9.984375 L 26.828125 26 L 19.921875 32.65625 L -3.890625 21.546875 L 6.375 45.734375 L -0.53125 52.390625 L -15.1875 14.640625 Z M -10.359375 9.984375"></path>
                        </g>
                    </g>
                </g>

                <g
                    fill="#fafafa"
                    fill-opacity="1"
                >
                    <g transform="translate(279.605903, 302.224188)">
                        <g>
                            <path d="M -2.046875 4.75 C 1.054688 5.550781 3.539062 7.394531 5.40625 10.28125 C 7.28125 13.175781 7.953125 16.210938 7.421875 19.390625 C 6.898438 22.578125 5.234375 25.078125 2.421875 26.890625 C -0.160156 28.566406 -2.816406 29.132812 -5.546875 28.59375 L -4.34375 30.46875 L -11.0625 34.828125 L -23.671875 15.328125 L -17.03125 11.015625 L -15.609375 13.21875 L -15.53125 13.171875 C -15.039062 10.242188 -13.503906 7.941406 -10.921875 6.265625 C -8.109375 4.453125 -5.148438 3.945312 -2.046875 4.75 Z M -0.890625 19.0625 C -0.578125 17.632812 -0.851562 16.25 -1.71875 14.90625 C -2.59375 13.570312 -3.71875 12.75 -5.09375 12.4375 C -6.476562 12.132812 -7.859375 12.425781 -9.234375 13.3125 C -10.554688 14.164062 -11.363281 15.296875 -11.65625 16.703125 C -11.945312 18.109375 -11.664062 19.472656 -10.8125 20.796875 C -9.945312 22.128906 -8.796875 22.945312 -7.359375 23.25 C -5.929688 23.550781 -4.582031 23.289062 -3.3125 22.46875 C -2.019531 21.632812 -1.210938 20.5 -0.890625 19.0625 Z M -0.890625 19.0625"></path>
                        </g>
                    </g>
                </g>

                <g
                    fill="#fafafa"
                    fill-opacity="1"
                >
                    <g transform="translate(256.730602, 316.668127)">
                        <g>
                            <path d="M -2.453125 1.1875 L 14.5 36.21875 L 7.296875 39.703125 L -9.65625 4.671875 Z M -2.453125 1.1875"></path>
                        </g>
                    </g>
                </g>

                <g
                    fill="#fafafa"
                    fill-opacity="1"
                >
                    <g transform="translate(248.319614, 321.528767)">
                        <g>
                            <path d="M -2.1875 25.3125 L -5.765625 14.859375 C -6.515625 12.691406 -7.375 11.265625 -8.34375 10.578125 C -9.3125 9.890625 -10.582031 9.8125 -12.15625 10.34375 C -13.726562 10.882812 -14.6875 11.722656 -15.03125 12.859375 C -15.375 13.992188 -15.171875 15.644531 -14.421875 17.8125 L -10.84375 28.265625 L -18.421875 30.875 L -22.625 18.59375 C -23.882812 14.9375 -23.835938 11.972656 -22.484375 9.703125 C -21.140625 7.441406 -18.394531 5.597656 -14.25 4.171875 C -10.113281 2.753906 -6.820312 2.523438 -4.375 3.484375 C -1.925781 4.453125 -0.0703125 6.765625 1.1875 10.421875 L 5.390625 22.703125 Z M -2.1875 25.3125"></path>
                        </g>
                    </g>
                </g>

                <g
                    fill="#fafafa"
                    fill-opacity="1"
                >
                    <g transform="translate(224.340302, 330.022268)">
                        <g>
                            <path d="M -24.09375 14.71875 L -7.5 11.921875 C -7.769531 10.316406 -8.488281 9.210938 -9.65625 8.609375 C -10.820312 8.003906 -12.015625 7.804688 -13.234375 8.015625 C -14.515625 8.234375 -15.5 8.578125 -16.1875 9.046875 C -16.875 9.515625 -17.609375 10.332031 -18.390625 11.5 L -24.59375 9.609375 C -22.875 5.222656 -19.253906 2.566406 -13.734375 1.640625 C -10.273438 1.054688 -7.113281 1.734375 -4.25 3.671875 C -1.382812 5.617188 0.328125 8.257812 0.890625 11.59375 C 1.453125 14.925781 0.703125 17.992188 -1.359375 20.796875 C -3.429688 23.597656 -6.195312 25.289062 -9.65625 25.875 C -13.28125 26.488281 -16.40625 25.929688 -19.03125 24.203125 C -21.664062 22.484375 -23.3125 19.679688 -23.96875 15.796875 C -24.050781 15.242188 -24.09375 14.882812 -24.09375 14.71875 Z M -6.96875 16.328125 L -15.6875 17.796875 C -15.3125 18.953125 -14.6875 19.785156 -13.8125 20.296875 C -12.945312 20.804688 -11.914062 20.957031 -10.71875 20.75 C -9.414062 20.53125 -8.429688 20.015625 -7.765625 19.203125 C -7.109375 18.390625 -6.84375 17.429688 -6.96875 16.328125 Z M -6.96875 16.328125"></path>
                        </g>
                    </g>
                </g>

                <g
                    fill="#fafafa"
                    fill-opacity="1"
                >
                    <g transform="translate(201.029841, 333.744291)">
                        <g></g>
                    </g>
                </g>
            </svg>