<svg xmlns="http://www.w3.org/2000/svg" xmlns:xlink="http://www.w3.org/1999/xlink" width="92" height="60" viewBox="0 0 92 60">
  <defs>
    <clipPath id="clip-path">
      <rect id="長方形_1815" data-name="長方形 1815" width="90.167" height="58.517" fill="none"/>
    </clipPath>
  </defs>
  <g id="グループ_170286" data-name="グループ 170286" transform="translate(-1071 -73)">
    <g id="グループ_170285" data-name="グループ 170285">
      <g id="グループ_169714" data-name="グループ 169714" transform="translate(1072 73.787)">
        <g id="グループ_3098" data-name="グループ 3098" clip-path="url(#clip-path)">
          <path id="パス_4892" data-name="パス 4892" d="M164.844,43.75a47.5,47.5,0,0,1,8.054,2.19,42.594,42.594,0,0,1,12.065,6.622,30.29,30.29,0,0,1,3.88,3.652,21.424,21.424,0,0,0,2.386-2.388,15.227,15.227,0,0,0,1.725-2.378,29.686,29.686,0,0,0-6.119-3.829,39.543,39.543,0,0,0-9.522-3.056,48.1,48.1,0,0,0-6.306-.8c-1.644-.141-5.228-.177-5.228-.177a54.646,54.646,0,0,1,11.465-.423,36.073,36.073,0,0,1,13.124,3.3,17.606,17.606,0,0,1,3.926,2.27,14.027,14.027,0,0,0,.881-3.886,16.257,16.257,0,0,0-.129-3.283,26.525,26.525,0,0,0-4.024-1.215,36.159,36.159,0,0,0-10.07-.652,44.562,44.562,0,0,0-8.656,1.43,68.121,68.121,0,0,0-6.585,2.155,49.049,49.049,0,0,1,7.754-3.48,41.573,41.573,0,0,1,7.223-1.854,35.875,35.875,0,0,1,9.59-.37c2.117.247,3.8.6,3.8.6A16.475,16.475,0,0,0,192.13,34.8a18.785,18.785,0,0,0-2.282-2.6,33.505,33.505,0,0,0-10.043,2.262,52.866,52.866,0,0,0-8.955,4.558,31.443,31.443,0,0,0-6.006,4.734" transform="translate(-119.747 -23.388)" fill="#00a486"/>
          <path id="パス_4893" data-name="パス 4893" d="M101.536,29.353a38.831,38.831,0,0,0-4.655-3.5c-2.851,2.334-7.473,3.854-12.691,3.854-8.664,0-15.687-4.184-15.687-9.345s7.023-9.346,15.687-9.346a23.634,23.634,0,0,1,8.873,1.638,39.913,39.913,0,0,1,6.389-3.562,29.524,29.524,0,0,1,7.306-2.347C101.037,2.478,92.875,0,84.19,0,74.046,0,64.606,3.382,58.944,9.047a15.974,15.974,0,0,0-5.129,11.314,15.975,15.975,0,0,0,5.129,11.314c5.662,5.664,15.1,9.048,25.246,9.048,8.672,0,16.507-2.451,22.046-6.37a43.649,43.649,0,0,0-4.7-5" transform="translate(-39.093 0)" fill="#00a486"/>
          <path id="パス_4894" data-name="パス 4894" d="M60.475,162.142a2.388,2.388,0,0,1-1.027-.759,9.906,9.906,0,0,1-1.485.655.674.674,0,0,1-.621.435c-.278,0-.272-.152-.241-.587l-.427.131c-.551,2.056-.571,2.132-.677,2.608-.011.042-.056.235-.067.276-.107.4-.627.4-.662.4-.32,0-.282-.145-.25-.262.078-.29.431-1.58.5-1.842-.037.007-.053.013-.112.021a6.054,6.054,0,0,1-1.445,1.677H53.9a9.907,9.907,0,0,0,.845-2.146l.824.242.183-.683c-.123.035-.651.2-.76.234-.025.041-.067.117-.131.117s-.108-.048-.111-.117l-.054-.807c.064,0,.386.021.428.021.135,0,.717-.021.831-.021a10.779,10.779,0,0,0,1.338-1.994l.8.421c.037.021.136.076.12.138-.024.09-.122.11-.332.152a7.144,7.144,0,0,1-.788.683c.082.014.911.186.894.752a6.443,6.443,0,0,0,1.2-.9,3.228,3.228,0,0,1-.368-1.415,3.358,3.358,0,0,0-.488.042l-.045-.256c.432.034.928.042,1,.042h1.1l.329-.324a.2.2,0,0,1,.111-.069.163.163,0,0,1,.1.062l.6.5c.033.034.092.083.071.159-.037.138-.253.173-.393.193a7.89,7.89,0,0,1-.993.945,2.971,2.971,0,0,0,1.188.345l-.015.055a2.131,2.131,0,0,0-.909.869m-3.328-2.525a7.124,7.124,0,0,1-1.014.732.5.5,0,0,1,.206.559.6.6,0,0,1-.561.448c-.256,0-.264-.1-.283-.483a1.483,1.483,0,0,0-.274-.863l.042-.048a3.2,3.2,0,0,1,.668.242,7.018,7.018,0,0,0,.532-1.214l.848.393c.076.034.122.048.106.111s-.063.076-.268.124m-.141,1.587c-.054.041-.446.338-.694.517.109-.007.66-.021.792-.034a1.383,1.383,0,0,0-.1-.483m3.271,3.8H57.29a3.9,3.9,0,0,0-.781.048l-.045-.255c.432.034.928.042,1,.042h.5l.409-1.525h-.391c-.085,0-.377,0-.551.014a.843.843,0,0,1-.024.276.617.617,0,0,1-.588.5c-.306,0-.283-.138-.211-.538a2.509,2.509,0,0,0,.006-.952l.047-.041c.469.241.606.366.706.552.272.021.782.028.789.028h.256a3.773,3.773,0,0,0,.209-1.18l.969.18c.163.027.222.048.194.152s-.112.124-.319.207l-.172.642h.249l.407-.455c.011-.014.081-.09.13-.09s.087.048.108.076l.383.455c.05.055.042.083.036.1a.115.115,0,0,1-.127.076H59.25l-.408,1.525H59.2l.446-.552a.22.22,0,0,1,.131-.09c.05,0,.081.041.109.069l.476.559c.037.048.044.076.036.1-.017.062-.07.076-.127.076m-1.161-5.438h-.149a2.349,2.349,0,0,0,.7.932,4.6,4.6,0,0,0,.669-.932Z" transform="translate(-39.158 -115.494)" fill="#231815"/>
          <path id="パス_4895" data-name="パス 4895" d="M91.459,160.865c-.05,0-.4-.062-.459-.069a4.446,4.446,0,0,1-.712.3.182.182,0,0,1,0,.069c-.018.069-.215.193-.367.283a7.194,7.194,0,0,1-.273.966c-.1.193-.506.241-.641.241-.256,0-.208-.179-.165-.366h-.42a6.6,6.6,0,0,1-.77.725h1.451l.378-.324c.027-.021.084-.076.12-.076a.21.21,0,0,1,.1.055l.5.414c.04.034.164.131.136.234s-.16.145-.406.214c-.07.234-.131.434-.155.552-.115.483-.131.594-.138.621-.074.276-.493.352-.742.352-.3,0-.238-.173-.177-.345h-2.8a.316.316,0,0,1-.2.228,1.23,1.23,0,0,1-.527.11c-.278,0-.271-.131-.232-.276.013-.048.241-.766.28-.911a5.554,5.554,0,0,0,.189-1.049l1.049.2h.7c.088-.221.22-.663.237-.725H87.08a.5.5,0,0,1-.17.318,1.086,1.086,0,0,1-.527.159c-.27,0-.287-.124-.24-.3.041-.152.232-.814.267-.946a4.119,4.119,0,0,0,.149-.821l1,.242h1.594l.331-.331c.03-.035.1-.1.134-.1a.227.227,0,0,1,.117.069l.423.386c.063-.1.282-.442.365-.593h-4.3a2.8,2.8,0,0,1-.083.469,1.174,1.174,0,0,1-.287.566.748.748,0,0,1-.525.234c-.221,0-.463-.131-.376-.455.063-.235.217-.331.44-.476a2.027,2.027,0,0,0,.741-.828h.071a2.471,2.471,0,0,1,.027.324H89.3a6.235,6.235,0,0,0,.761-1.566l1.189.393a.084.084,0,0,1,.063.111c-.024.09-.235.159-.449.214a8.9,8.9,0,0,1-1.28.849h.932l.459-.386c.036-.028.073-.062.1-.062s.066.041.082.062l.5.8a.145.145,0,0,1,.011.117.2.2,0,0,1-.213.131m-4.387-.724c-.249,0-.248-.138-.264-.421a1.236,1.236,0,0,0-.315-.814l.015-.055c.847-.028,1.33.345,1.2.821a.661.661,0,0,1-.638.469m2.067,3.036h-2.8l-.366,1.367h2.8Zm-.655-3.05c-.356,0-.345-.2-.333-.455a1.183,1.183,0,0,0-.191-.9l.015-.055c.842.069,1.24.5,1.119.945a.626.626,0,0,1-.609.469m.676.98H87.4l-.272,1.014h1.764Z" transform="translate(-61.702 -115.237)" fill="#231815"/>
          <path id="パス_4896" data-name="パス 4896" d="M112.29,166.32a7.551,7.551,0,0,0,2.494-2.988.2.2,0,0,0-.049-.242,7.265,7.265,0,0,0-1.132.242,2.141,2.141,0,0,1-.587.2c-.327,0-.559-.594-.471-.925a1.321,1.321,0,0,1,.178-.345.584.584,0,0,0,.577.448c.192,0,1.059-.1,1.234-.117.334-.027,1.826-.124,2.13-.172.133-.021.736-.172.857-.172.178,0,.676.186.576.559a.332.332,0,0,1-.378.269c-.021,0-.43-.041-.513-.048-.349-.027-.563-.048-.9-.048-.235,0-.523.014-.886.041.449.29.5.324.472.414s-.079.11-.22.186c-.059.035-.1.1-.2.255a6.335,6.335,0,0,1-2.173,2.111,4.3,4.3,0,0,1-.991.379Zm2.638-5.12a7.344,7.344,0,0,0,1.362-.173,2.359,2.359,0,0,1,.471-.11c.228,0,.593.1.519.372-.083.311-.277.318-.78.338s-1.187.1-1.716.166c-.052.007-.271.027-.349.027-.484,0-.494-.545-.426-.8a.463.463,0,0,1,.064-.131c.225.3.465.311.855.311m3.638.759a.341.341,0,0,1-.321.269c-.135,0-.142-.028-.26-.276a1.692,1.692,0,0,0-.591-.663c1.1-.007,1.241.414,1.172.669m.7-.511c-.011.041-.1.311-.325.311-.142,0-.16-.042-.253-.276a1.421,1.421,0,0,0-.585-.656c.315-.007,1.321.034,1.164.621" transform="translate(-81.57 -116.829)" fill="#231815"/>
          <path id="パス_4897" data-name="パス 4897" d="M141.47,165.572a5.583,5.583,0,0,0,1.55-1.856,9.265,9.265,0,0,0,.711-1.856,9.974,9.974,0,0,0-1.365.131,12.52,12.52,0,0,1-.494,1.739.3.3,0,0,1-.295.145c-.277,0-.388-.3-.309-.6a4.464,4.464,0,0,1,.162-.421,7.387,7.387,0,0,0,.233-.711,4.48,4.48,0,0,0-.8.269.8.8,0,0,1-.336.11c-.213,0-.52-.317-.386-.814a1.384,1.384,0,0,1,.223-.462c.085.428.321.476.527.476.092,0,.166-.007.913-.09a3.673,3.673,0,0,0,.171-1.035c-.071-.159-.231-.2-.518-.269a1.208,1.208,0,0,1,.686-.248c.249,0,.846.159.765.462a1.639,1.639,0,0,1-.189.359,4.888,4.888,0,0,0-.233.656c.682-.076.755-.083,1.378-.124.351-1.311.284-1.325-.3-1.449a1.756,1.756,0,0,1,.748-.242c.071,0,.931.055.82.469a2.637,2.637,0,0,1-.16.276,4.63,4.63,0,0,0-.354.9,3.692,3.692,0,0,0,.675-.076,2.168,2.168,0,0,1,.328-.055.551.551,0,0,1,.257.076c.436.179.491.317.445.49a.36.36,0,0,1-.392.3,1.941,1.941,0,0,1-.6-.131,3.148,3.148,0,0,0-.87-.124,9.446,9.446,0,0,1-.559,1.635,4.558,4.558,0,0,1-2.4,2.125Zm4.629-5.41a.426.426,0,0,1,.3.5.368.368,0,0,1-.35.269c-.135,0-.154-.035-.264-.262a2.935,2.935,0,0,0-.475-.642,2.243,2.243,0,0,1,.79.131m.195-.593c.392,0,1.013.124.87.655a.366.366,0,0,1-.341.29c-.114,0-.135-.028-.266-.31a1.552,1.552,0,0,0-.538-.621,2.183,2.183,0,0,1,.274-.014" transform="translate(-101.775 -115.915)" fill="#231815"/>
          <path id="パス_4898" data-name="パス 4898" d="M167.888,163.691a22.633,22.633,0,0,0,4.217-3.153c.145-.145.189-.2.216-.3.05-.186-.025-.3-.269-.456a.932.932,0,0,1,.237-.034,1.007,1.007,0,0,1,1.022.883c-.039.145-.142.186-.348.262a1.02,1.02,0,0,0-.346.228,14.2,14.2,0,0,1-1.235.918c.035.028.21.145.222.152.053.041.078.055.059.124a1.128,1.128,0,0,1-.114.214,1.589,1.589,0,0,0-.188.463c-.089.331-.436,1.787-.516,2.084-.1.366-.315.538-.5.538-.349,0-.389-.538-.361-.642.018-.069.165-.352.187-.407.106-.235.365-1.152.443-1.442a3.309,3.309,0,0,0,.134-.683,12.945,12.945,0,0,1-2.848,1.311Z" transform="translate(-121.958 -116.042)" fill="#231815"/>
          <path id="パス_4899" data-name="パス 4899" d="M199.5,161.385c.562,0,1.385.166,1.2.848a.7.7,0,0,1-.628.511c-.171,0-.2-.042-.423-.414a1.816,1.816,0,0,0-.916-.855,3.57,3.57,0,0,1,.764-.09m4.238.614c-1.189,1.891-2.509,2.726-4.542,3.967-.027.021-.245.173-.3.214a.407.407,0,0,1-.232.1c-.363,0-.839-.718-.7-1.249a.988.988,0,0,1,.183-.338c.071.214.221.5.456.5a15.256,15.256,0,0,0,5.082-3.223Z" transform="translate(-143.79 -117.234)" fill="#231815"/>
          <path id="パス_4900" data-name="パス 4900" d="M223.16,160.226h-1.85a4.7,4.7,0,0,0-.779.041l-.053-.255c.437.042.935.042,1.006.042h.754l.387-.435c.011-.014.081-.089.13-.089s.1.062.115.076l.369.428a.136.136,0,0,1,.047.117.117.117,0,0,1-.127.076m-.464.855h-1.373a3.85,3.85,0,0,0-.781.048l-.053-.255c.432.034.935.041,1.006.041h.348l.349-.4c.033-.041.092-.1.141-.1a.154.154,0,0,1,.108.076l.339.407c.026.034.053.069.042.11a.117.117,0,0,1-.127.076m-.752,3.471a.36.36,0,0,1-.248-.083.425.425,0,0,1-.482.366c-.363,0-.322-.152-.23-.442h-.633c-.009.035-.091.338-.105.366a.6.6,0,0,1-.52.242c-.291,0-.274-.117-.195-.414.046-.173.278-.959.321-1.118a9.74,9.74,0,0,0,.231-1.077l.738.38h.583l.213-.234c.05-.055.111-.124.154-.124s.081.041.129.076l.416.331c.048.034.086.076.073.124-.022.083-.233.207-.383.29-.068.255-.128.476-.189.731.058-.055.319-.262.368-.31a1.538,1.538,0,0,0,.446-.683h.071a2.791,2.791,0,0,1-.052.911c-.094.352-.293.669-.706.669m.5-2.539h-1.323a3.868,3.868,0,0,0-.781.048l-.045-.256c.432.034.928.041,1,.041h.377l.31-.387c.039-.041.092-.1.149-.1s.087.048.108.076l.293.393c.047.062.049.083.042.111a.117.117,0,0,1-.127.076m.722-2.643H221.91a4.543,4.543,0,0,0-.781.048l-.045-.255c.43.041.928.041,1,.041h.213l.394-.435c.018-.014.079-.083.136-.083a.162.162,0,0,1,.107.076l.321.421c.01.014.053.069.041.11-.016.062-.077.076-.134.076m-1.788,3.567h-.633l-.346,1.29h.633Zm5.431-3.278c-.387,1.442-.66,2.464-1.987,2.5.085-.421-.074-.628-.481-.807l.043-.055c.092,0,.523.014.608.014a.63.63,0,0,0,.487-.2,6.222,6.222,0,0,0,.547-1.428c.02-.076.045-.276.06-.359h-.761a5.888,5.888,0,0,1-.37.821c.138.069.506.262.4.642a.533.533,0,0,1-.495.359c-.171,0-.187-.021-.356-.317a5.462,5.462,0,0,1-1.959,1.366l-.019-.062a4.777,4.777,0,0,0,1.528-1.774,3.253,3.253,0,0,0-.513-.317l.04-.069c.345-.013.5-.007.661,0a5,5,0,0,0,.224-.648h-.114a4.664,4.664,0,0,0-.779.042l-.047-.249c.432.034.928.042,1,.042H226.1l.3-.283c.106-.1.117-.117.152-.117s.064.027.138.1l.4.387c.067.069.074.1.061.145-.02.076-.215.193-.349.269M223.9,165c-1.2,0-1.351,0-1.139-.766l.279-1.014a3.152,3.152,0,0,0,.088-.435l.721.152c.1.02.174.041.155.11s-.113.131-.263.214c-.028.1-.233.869-.228.9.015.1.018.117.424.117.291,0,.377,0,.767-.794h.064c-.063.607-.03.7.085.745.154.062.173.069.153.145-.166.621-.792.621-1.106.621m.457-1.891c-.242,0-.241-.083-.227-.4a1.037,1.037,0,0,0-.3-.593l.029-.055c.349,0,1.2.048,1.037.642a.548.548,0,0,1-.543.407m1.114,1.18c-.327,0-.333-.3-.307-.476a1.452,1.452,0,0,0-.1-.952l.052-.062c.535.179,1.035.49.887,1.042a.583.583,0,0,1-.533.449" transform="translate(-159.436 -115.274)" fill="#231815"/>
          <path id="パス_4901" data-name="パス 4901" d="M251.116,160.461h-1.757a4.7,4.7,0,0,0-.779.042l-.047-.248c.432.034.928.042,1,.042h.541l.436-.435c.077-.076.108-.083.129-.083s.048.007.109.069l.453.435a.1.1,0,0,1,.043.1.122.122,0,0,1-.127.076m2.737,4.278h-4c-.05,0-.1,0-.2.007-.043.186-.19.283-.488.283-.32,0-.342-.076-.227-.4h-.569c-.066.352-.168.628-.51.628-.384,0-.378-.1-.3-.407.026-.1.272-.911.319-1.083a8.117,8.117,0,0,0,.232-1.076l.671.31h.541l.277-.29c.059-.062.083-.1.133-.1s.069.034.115.076l.437.386c.058.048.086.076.075.117s-.063.076-.376.29l-.29,1.083c.028,0,.268.007.333.007h.185l.692-2.581a6.012,6.012,0,0,0,.17-.98l.8.2c.174.042.319.083.3.166s-.248.207-.341.262l-.786,2.933h.427l1.278-4.768h-.683a4.472,4.472,0,0,0-.781.048l-.045-.255c.43.041.928.041,1,.041H253.9l.535-.511c.057-.055.093-.083.136-.083s.064.028.108.076l.5.51c.021.028.056.055.043.1s-.075.069-.125.069h-1.465l-.575,2.146h.2l.527-.531a.225.225,0,0,1,.129-.083.169.169,0,0,1,.115.076l.4.524c.037.048.044.076.036.1a.115.115,0,0,1-.127.076h-1.323l-.658,2.457h.363l.548-.587c.031-.035.088-.09.131-.09s.087.048.108.076l.44.587c.03.048.046.069.036.1a.115.115,0,0,1-.127.076m-3.545-2.539H249.17a3.893,3.893,0,0,0-.781.048l-.045-.256c.083.007.608.041.771.041h.185l.415-.407c.048-.048.086-.083.129-.083s.069.035.109.069l.446.407c.016.021.056.055.043.1-.018.069-.084.076-.134.076m.231-.863H249.43a3.9,3.9,0,0,0-.781.048l-.045-.255c.091.007.608.041.771.041h.171l.412-.449c.029-.027.088-.09.138-.09s.074.042.108.076l.428.448c.021.028.056.055.043.1s-.084.076-.134.076m.455-1.7H249.92a4.709,4.709,0,0,0-.779.042l-.047-.249c.229.021.537.042.771.042h.192l.4-.428a.241.241,0,0,1,.136-.083.166.166,0,0,1,.109.069l.383.428c.034.034.054.062.043.1-.016.062-.084.076-.134.076m-1.656,3.526h-.576l-.348,1.3h.576Z" transform="translate(-179.804 -115.476)" fill="#231815"/>
          <path id="パス_4902" data-name="パス 4902" d="M0,197.02l.128-.479.935-.859a12.6,12.6,0,0,0,1.555-1.618,3.359,3.359,0,0,0,.542-1.079,1.2,1.2,0,0,0,.009-.8.488.488,0,0,0-.486-.278.952.952,0,0,0-.5.145.944.944,0,0,0-.324.286q-.038.064-.342.727H1.227q.343-.859.545-1.509a2.539,2.539,0,0,1,.7-.479,1.8,1.8,0,0,1,.726-.15,1.007,1.007,0,0,1,.947.46,1.516,1.516,0,0,1,.076,1.186,3.288,3.288,0,0,1-.623,1.176,21.442,21.442,0,0,1-2.287,2.167l.005.056h.8a13.4,13.4,0,0,0,1.389-.056l.023.056q-.133.368-.182.552a3.741,3.741,0,0,0-.087.453l-.049.043q-.655-.043-1.514-.043-.636,0-1.7.043" transform="translate(0 -138.696)" fill="#231815"/>
          <path id="パス_4903" data-name="パス 4903" d="M14.6,194.1a8.239,8.239,0,0,1,.7-1.887,2.911,2.911,0,0,1,.826-.966,1.662,1.662,0,0,1,.966-.318.965.965,0,0,1,.751.274,1.29,1.29,0,0,1,.259.859,7.218,7.218,0,0,1-.312,1.791,8.481,8.481,0,0,1-.716,1.921,3.087,3.087,0,0,1-.825,1,1.573,1.573,0,0,1-.941.321.959.959,0,0,1-.751-.3,1.311,1.311,0,0,1-.281-.872A7.367,7.367,0,0,1,14.6,194.1m1-.558a15.68,15.68,0,0,0-.441,2.015,1.742,1.742,0,0,0,.048.894.323.323,0,0,0,.307.179.729.729,0,0,0,.587-.376,6.37,6.37,0,0,0,.685-1.806,11.739,11.739,0,0,0,.461-2.434q.02-.625-.383-.625a.792.792,0,0,0-.615.408,6.3,6.3,0,0,0-.648,1.743" transform="translate(-10.37 -138.696)" fill="#231815"/>
          <path id="パス_4904" data-name="パス 4904" d="M24.515,197.02l.128-.479.935-.859a12.6,12.6,0,0,0,1.555-1.618,3.359,3.359,0,0,0,.542-1.079,1.2,1.2,0,0,0,.009-.8.488.488,0,0,0-.486-.278,1.091,1.091,0,0,0-.827.432q-.038.064-.342.727h-.287q.343-.859.545-1.509a2.539,2.539,0,0,1,.7-.479,1.8,1.8,0,0,1,.726-.15,1.007,1.007,0,0,1,.947.46,1.516,1.516,0,0,1,.076,1.186,3.288,3.288,0,0,1-.623,1.176,21.442,21.442,0,0,1-2.287,2.167l.005.056h.8a13.4,13.4,0,0,0,1.389-.056l.023.056q-.133.368-.182.552a3.741,3.741,0,0,0-.087.453l-.049.043q-.655-.043-1.514-.043-.636,0-1.7.043" transform="translate(-17.808 -138.696)" fill="#231815"/>
          <path id="パス_4905" data-name="パス 4905" d="M37.573,197.16l-.021-.051.069-.257.048-.051a4.669,4.669,0,0,0,.77-.115.283.283,0,0,0,.121-.107,5.185,5.185,0,0,0,.288-.843q.359-1.236.614-2.191.336-1.254.353-1.395c0-.051-.01-.077-.044-.077a.3.3,0,0,0-.105.034l-1.084.539-.036-.034a4.4,4.4,0,0,0,.068-.521l.045-.064a24.786,24.786,0,0,0,2.373-.893l.072.064q-.2.595-.5,1.621t-.688,2.485a10.6,10.6,0,0,0-.288,1.24.167.167,0,0,0,.039.15,2.045,2.045,0,0,0,.665.107l.027.051-.069.257-.054.051-.421-.013q-.638-.017-.864-.017-.629,0-1.376.03" transform="translate(-27.279 -138.844)" fill="#231815"/>
          <path id="パス_4906" data-name="パス 4906" d="M49.607,203.029l-.026-.081a6.668,6.668,0,0,0,.465-.893q.625.026,1.026.026.421,0,.968-.026l.025.086q-.231.389-.478.889Q51.026,203,50.578,203t-.971.026" transform="translate(-36.017 -146.777)" fill="#231815"/>
          <path id="パス_4907" data-name="パス 4907" d="M55.05,197.02l.128-.479.935-.859a12.593,12.593,0,0,0,1.555-1.618,3.36,3.36,0,0,0,.542-1.079,1.2,1.2,0,0,0,.009-.8.488.488,0,0,0-.486-.278,1.091,1.091,0,0,0-.827.432q-.038.064-.342.727h-.287q.343-.859.544-1.509a2.539,2.539,0,0,1,.7-.479,1.794,1.794,0,0,1,.726-.15,1.007,1.007,0,0,1,.947.46,1.515,1.515,0,0,1,.076,1.186,3.288,3.288,0,0,1-.623,1.176,21.442,21.442,0,0,1-2.287,2.167l.006.056h.8a13.4,13.4,0,0,0,1.389-.056l.023.056q-.133.368-.182.552a3.8,3.8,0,0,0-.087.453l-.049.043q-.655-.043-1.514-.043-.636,0-1.7.043" transform="translate(-39.99 -138.696)" fill="#231815"/>
          <path id="パス_4908" data-name="パス 4908" d="M69.648,194.1a8.239,8.239,0,0,1,.7-1.887,2.908,2.908,0,0,1,.826-.966,1.661,1.661,0,0,1,.966-.318.963.963,0,0,1,.75.274,1.289,1.289,0,0,1,.259.859,7.227,7.227,0,0,1-.312,1.791,8.506,8.506,0,0,1-.717,1.921,3.087,3.087,0,0,1-.825,1,1.573,1.573,0,0,1-.941.321.958.958,0,0,1-.751-.3,1.311,1.311,0,0,1-.281-.872,7.38,7.38,0,0,1,.322-1.821m1-.558a15.731,15.731,0,0,0-.441,2.015,1.741,1.741,0,0,0,.048.894.323.323,0,0,0,.307.179.729.729,0,0,0,.587-.376,6.368,6.368,0,0,0,.686-1.806,11.762,11.762,0,0,0,.461-2.434q.02-.625-.384-.625a.793.793,0,0,0-.616.408,6.307,6.307,0,0,0-.648,1.743" transform="translate(-50.36 -138.696)" fill="#231815"/>
          <path id="パス_4909" data-name="パス 4909" d="M79.564,197.02l.129-.479.935-.859a12.606,12.606,0,0,0,1.555-1.618,3.361,3.361,0,0,0,.543-1.079,1.2,1.2,0,0,0,.009-.8.488.488,0,0,0-.486-.278,1.09,1.09,0,0,0-.827.432q-.038.064-.342.727h-.288q.343-.859.544-1.509a2.548,2.548,0,0,1,.7-.479,1.8,1.8,0,0,1,.726-.15,1.006,1.006,0,0,1,.947.46,1.514,1.514,0,0,1,.075,1.186,3.288,3.288,0,0,1-.623,1.176,21.415,21.415,0,0,1-2.287,2.167l.006.056h.8a13.4,13.4,0,0,0,1.389-.056l.023.056c-.088.245-.149.429-.182.552a3.848,3.848,0,0,0-.087.453l-.049.043q-.655-.043-1.513-.043-.636,0-1.7.043" transform="translate(-57.797 -138.696)" fill="#231815"/>
          <path id="パス_4910" data-name="パス 4910" d="M93.007,195.49l.267-.077a1.626,1.626,0,0,0,.224.91.678.678,0,0,0,.573.269,1.013,1.013,0,0,0,.719-.327,1.832,1.832,0,0,0,.475-.857,1.16,1.16,0,0,0-.025-.846.625.625,0,0,0-.607-.316,1.676,1.676,0,0,0-.417.068l-.032-.06q.135-.252.323-.671a1.753,1.753,0,0,0,.2.017,1.01,1.01,0,0,0,.683-.267,1.331,1.331,0,0,0,.413-.673.764.764,0,0,0-.032-.586.471.471,0,0,0-.448-.227,1.027,1.027,0,0,0-.431.1.922.922,0,0,0-.3.2,4.387,4.387,0,0,0-.358.6l-.266-.017a13.386,13.386,0,0,0,.587-1.363,2.544,2.544,0,0,1,.628-.332,1.918,1.918,0,0,1,.62-.1.937.937,0,0,1,.843.355,1.1,1.1,0,0,1,.083.923,1.9,1.9,0,0,1-.368.729,2.653,2.653,0,0,1-.777.6,1.009,1.009,0,0,1,.556.218.774.774,0,0,1,.2.459,1.731,1.731,0,0,1-.061.686,2.963,2.963,0,0,1-1.161,1.641,2.532,2.532,0,0,1-1.509.556,1.385,1.385,0,0,1-.425-.064,1.362,1.362,0,0,1-.375-.188q.105-.636.192-1.351" transform="translate(-67.423 -138.696)" fill="#231815"/>
          <path id="パス_4911" data-name="パス 4911" d="M107.221,191.678a6.683,6.683,0,0,1-.581.5l-.3-.769a6.124,6.124,0,0,0,1.879-2.184l.742.164c-.079.157-.125.242-.3.526h3.62l-.227.846h-1.88l-.225.839h1.686l-.221.825h-1.686l-.305,1.138h2.11l-.227.846H109.2l-.416,1.551h-.767l.415-1.551h-2.817l.227-.846h.871Zm1.968-.079.225-.839h-1.36c-.206.249-.417.5-.751.839Zm-1.418.825-.305,1.138h1.2l.305-1.138Z" transform="translate(-76.724 -137.457)" fill="#231815"/>
          <path id="パス_4912" data-name="パス 4912" d="M127.364,189.793h2.152l.132-.491h.78l-.132.491h2.351l-.21.782h-.871l-.12.448h.9l-.183.683h-.9l-.29,1.081h-2.932l.29-1.081h-.744l-.351,1.309A8.962,8.962,0,0,1,125.881,196l-.457-.662a6.983,6.983,0,0,0,1.088-2.369Zm.746,4.076h-.955l.2-.747h3.862l-.2.747a4.147,4.147,0,0,1-1.179,1.039,5.992,5.992,0,0,0,1.419.277l-.523.846a5.3,5.3,0,0,1-1.875-.6,8.081,8.081,0,0,1-2.324.6l-.06-.79a8.39,8.39,0,0,0,1.676-.32,2.259,2.259,0,0,1-.537-.683Zm-.224-3.293-.12.448h.743l.12-.448Zm.478,3.293a2.468,2.468,0,0,0,.7.683,2.929,2.929,0,0,0,.957-.683Zm.979-3.293-.12.448h1.517l.12-.448Zm-.3,1.131-.12.448h1.517l.12-.448Z" transform="translate(-91.111 -137.514)" fill="#231815"/>
          <path id="パス_4913" data-name="パス 4913" d="M173.86,192.809c-.8,2.227-1.878,3.92-5.131,4.24v-.882c2.7-.142,3.464-1.423,3.937-2.468h-3.983l.238-.889Zm.1-1.686-.238.889h-4.159l.238-.889Z" transform="translate(-122.536 -138.837)" fill="#231815"/>
          <path id="パス_4914" data-name="パス 4914" d="M188.5,193.572a5.337,5.337,0,0,0-1.56-1.06l.594-.818a4.777,4.777,0,0,1,1.635.982Zm-2.513,2.767c2.01-.171,3.74-.9,5.475-4.189l.668.441c-1.856,3.407-3.67,4.424-6.157,4.794Z" transform="translate(-135.099 -139.251)" fill="#231815"/>
          <path id="パス_4915" data-name="パス 4915" d="M212.074,190.786c-.93,2.3-2.427,4.794-5.774,5.306l-.1-.86c1.795-.292,3.308-.953,4.606-3.564h-2.025a8.414,8.414,0,0,1-1.866,1.593l-.355-.7a7.167,7.167,0,0,0,2.7-2.76l.814.164a9.04,9.04,0,0,1-.56.825Z" transform="translate(-149.788 -137.873)" fill="#231815"/>
          <path id="パス_4916" data-name="パス 4916" d="M231.788,191.174a5.7,5.7,0,0,1-2.655,3.187l-.362-.726a3.653,3.653,0,0,0,1.713-1.565h-4.171l.24-.9Zm-6.483,5.2c1.283-.526,2.183-1.287,2.828-3.72l.86.014c-.59,2.02-1.435,3.528-3.369,4.453Z" transform="translate(-163.667 -138.874)" fill="#231815"/>
          <path id="パス_4917" data-name="パス 4917" d="M247.406,198.041a7.01,7.01,0,0,0-.008-1.728l.712-.22a6.83,6.83,0,0,1,.059,1.743Zm-.475,1.771c2.176-.519,2.974-1.444,4.044-3.926l.73.185a7.983,7.983,0,0,1-2.481,3.507,6.074,6.074,0,0,1-2.152,1Zm1.876-2.084a6.906,6.906,0,0,0,.056-1.721l.707-.178a5.894,5.894,0,0,1-.014,1.7Z" transform="translate(-179.377 -142.255)" fill="#231815"/>
          <path id="パス_4918" data-name="パス 4918" d="M269.432,189.683c-.1.569.129.9.591.932a6.737,6.737,0,0,1-5.12,4.716l-.147-.918c2.237-.384,3.492-1.415,4.4-3.805h-3.832l.248-.925Zm1.554-.114a.993.993,0,0,1-.851.761c-.357,0-.555-.341-.443-.761a1,1,0,0,1,.851-.761c.357,0,.557.334.443.761m-.925,0c-.048.178.039.327.19.327a.428.428,0,0,0,.366-.327c.05-.185-.033-.327-.19-.327a.426.426,0,0,0-.366.327" transform="translate(-192.326 -137.155)" fill="#231815"/>
          <path id="パス_4919" data-name="パス 4919" d="M283.367,191.2h2.279l-.193.718h-2.279Zm.446-1.01h1.91l-.185.69h-1.91Zm-.551,2.056h1.91l-.187.7h-1.91Zm-.286,1.067h1.91l-.175.654H282.8Zm1.176,2.739-.091.341H282.8l-.074.277h-.647l.622-2.319h1.91l-.36,1.344a6.056,6.056,0,0,0,.711-1.479l.6.1a8.822,8.822,0,0,1-1.032,2.07Zm-.987-1.031-.185.69h.683l.185-.69Zm2.724-4.1.2-.733h3.1a15.913,15.913,0,0,1-.819,2.561c-.151.291-.356.6-.76.6h-.641l.095-.783a3.721,3.721,0,0,0-.346-.263,5.811,5.811,0,0,1-1.429,1.252l-.27-.662a3.38,3.38,0,0,0,1.154-.882,4.591,4.591,0,0,0-.539-.221l.411-.633a5.07,5.07,0,0,1,.575.2c.082-.171.129-.277.19-.441Zm-.213,3.343h.646l-.367,1.373c-.035.128-.022.192.057.192h.242c.108,0,.18-.064.374-.675l.529.213c-.218.633-.43,1.245-.9,1.245h-.732c-.453,0-.363-.427-.342-.505Zm.745-1.2a3.283,3.283,0,0,1,.837.868l-.539.59a3.2,3.2,0,0,0-.836-.9Zm1.088-2.141a6.169,6.169,0,0,1-.34.7,2.506,2.506,0,0,1,.491.356l-.436.59h.338c.085,0,.167-.014.271-.22a8.692,8.692,0,0,0,.48-1.43Zm.363,3.158a7.435,7.435,0,0,1-.018,2.027l-.741.285a8.752,8.752,0,0,0,.1-2.084Z" transform="translate(-204.908 -138.156)" fill="#231815"/>
          <path id="パス_4920" data-name="パス 4920" d="M304.525,191.178h2.388l-.193.718h-2.387Zm.448-1.017h2.019l-.185.69h-2.019Zm-.551,2.056h2.019l-.187.7h-2.019Zm-.284,1.06h2.019l-.189.7H303.95Zm-.28,1.046h2.019l-.553,2.063h-1.33l-.072.27h-.689Zm.5.69-.181.676h.671l.181-.676Zm4.159-4.019h-1.456l.223-.832h3.155l-.223.832h-.967l-.454,1.693h.846l-.221.825h-.846l-.559,2.084h1.052l-.225.84H305.5l.225-.84h.29l1-3.727h.719l-1,3.727h.556Z" transform="translate(-220.276 -138.138)" fill="#231815"/>
        </g>
      </g>
      <rect id="長方形_31604" data-name="長方形 31604" width="92" height="60" transform="translate(1071 73)" fill="none"/>
    </g>
  </g>
</svg>
