<svg xmlns="http://www.w3.org/2000/svg" xmlns:xlink="http://www.w3.org/1999/xlink" width="576" zoomAndPan="magnify" viewBox="0 0 432 287.999989" height="384" preserveAspectRatio="xMidYMid meet" version="1.0"><defs><g/><clipPath id="256ca7880d"><path d="M 11.667969 11.199219 L 420.332031 11.199219 L 420.332031 276.699219 L 11.667969 276.699219 Z M 11.667969 11.199219 " clip-rule="nonzero"/></clipPath><clipPath id="680318e186"><path d="M 18.574219 17.820312 L 413.070312 17.820312 L 413.070312 269.820312 L 18.574219 269.820312 Z M 18.574219 17.820312 " clip-rule="nonzero"/></clipPath><clipPath id="9b70cbed16"><path d="M 164.925781 68.792969 L 266.925781 68.792969 L 266.925781 173.042969 L 164.925781 173.042969 Z M 164.925781 68.792969 " clip-rule="nonzero"/></clipPath></defs><rect x="-43.2" width="518.4" fill="#ffffff" y="-28.799999" height="345.599986" fill-opacity="1"/><rect x="-43.2" width="518.4" fill="#ffffff" y="-28.799999" height="345.599986" fill-opacity="1"/><g clip-path="url(#256ca7880d)"><path stroke-linecap="butt" transform="matrix(0.75, 0, 0, 0.75, 11.666491, 11.198864)" fill="none" stroke-linejoin="miter" d="M 0.00197008 0.000472725 L 544.887431 0.000472725 L 544.887431 354.125502 L 0.00197008 354.125502 Z M 0.00197008 0.000472725 " stroke="#333333" stroke-width="8" stroke-opacity="1" stroke-miterlimit="4"/></g><g clip-path="url(#680318e186)"><path stroke-linecap="butt" transform="matrix(0.75, 0, 0, 0.75, 18.574814, 17.821247)" fill="none" stroke-linejoin="miter" d="M -0.000793119 -0.00124635 L 526.462792 -0.00124635 L 526.462792 336.467531 L -0.000793119 336.467531 Z M -0.000793119 -0.00124635 " stroke="#333333" stroke-width="8" stroke-opacity="1" stroke-miterlimit="4"/></g><g fill="#333333" fill-opacity="1"><g transform="translate(163.592205, 60.338125)"><g><path d="M 3.796875 -0.421875 C 3.242188 -0.140625 2.804688 -0.046875 2.484375 -0.140625 C 2.171875 -0.242188 1.898438 -0.492188 1.671875 -0.890625 C 1.335938 -1.429688 1.039062 -2.222656 0.78125 -3.265625 C 0.519531 -4.316406 0.289062 -5.488281 0.09375 -6.78125 C -0.863281 -6.0625 -1.460938 -5.601562 -1.703125 -5.40625 C -2.128906 -6.28125 -1.617188 -7.1875 -0.171875 -8.125 C -0.609375 -10.28125 -0.882812 -12.03125 -1 -13.375 C -1.1875 -13.289062 -1.382812 -13.179688 -1.59375 -13.046875 C -2.507812 -12.492188 -3.054688 -11.972656 -3.234375 -11.484375 C -3.410156 -10.992188 -3.320312 -10.457031 -2.96875 -9.875 C -2.8125 -9.625 -2.644531 -9.40625 -2.46875 -9.21875 C -2.300781 -9.03125 -2.070312 -8.835938 -1.78125 -8.640625 C -2.78125 -8.234375 -3.515625 -8.414062 -3.984375 -9.1875 C -4.304688 -9.71875 -4.398438 -10.316406 -4.265625 -10.984375 C -4.128906 -11.648438 -3.78125 -12.316406 -3.21875 -12.984375 C -2.664062 -13.660156 -1.960938 -14.253906 -1.109375 -14.765625 C -0.785156 -14.960938 -0.429688 -15.15625 -0.046875 -15.34375 C 0.328125 -15.539062 0.570312 -15.664062 0.6875 -15.71875 C 1.351562 -16.019531 1.875 -16.285156 2.25 -16.515625 C 2.738281 -16.804688 3.222656 -17.203125 3.703125 -17.703125 C 3.535156 -16.878906 3.351562 -16.269531 3.15625 -15.875 C 2.96875 -15.476562 2.710938 -15.1875 2.390625 -15 C 2.179688 -14.875 1.828125 -14.703125 1.328125 -14.484375 C 0.617188 -14.179688 0.160156 -13.972656 -0.046875 -13.859375 C 0.0351562 -13.285156 0.175781 -12.539062 0.375 -11.625 C 0.582031 -10.707031 0.804688 -9.78125 1.046875 -8.84375 C 1.304688 -8.976562 1.546875 -9.09375 1.765625 -9.1875 C 1.984375 -9.289062 2.171875 -9.382812 2.328125 -9.46875 C 3.128906 -9.832031 3.738281 -10.140625 4.15625 -10.390625 C 4.132812 -10.046875 4.054688 -9.769531 3.921875 -9.5625 C 3.785156 -9.351562 3.539062 -9.125 3.1875 -8.875 C 2.84375 -8.625 2.234375 -8.222656 1.359375 -7.671875 C 1.578125 -6.898438 1.8125 -6.019531 2.0625 -5.03125 C 2.375 -3.882812 2.664062 -2.953125 2.9375 -2.234375 C 3.207031 -1.523438 3.492188 -0.921875 3.796875 -0.421875 Z M 3.796875 -0.421875 "/></g></g></g><g fill="#333333" fill-opacity="1"><g transform="translate(173.112596, 54.741967)"><g><path d="M 1.359375 0.015625 C 0.898438 0.222656 0.492188 0.222656 0.140625 0.015625 C -0.203125 -0.179688 -0.476562 -0.5 -0.6875 -0.9375 C -0.90625 -1.40625 -1.035156 -1.929688 -1.078125 -2.515625 C -1.117188 -3.109375 -1.0625 -3.644531 -0.90625 -4.125 C -0.75 -4.613281 -0.503906 -4.9375 -0.171875 -5.09375 C -0.0351562 -5.15625 0.15625 -5.191406 0.40625 -5.203125 C 0.226562 -5.742188 0.207031 -6.25 0.34375 -6.71875 C 0.488281 -7.195312 0.832031 -7.5625 1.375 -7.8125 C 1.8125 -8.019531 2.191406 -8.046875 2.515625 -7.890625 C 2.847656 -7.742188 3.113281 -7.46875 3.3125 -7.0625 C 3.488281 -6.675781 3.585938 -6.179688 3.609375 -5.578125 C 3.640625 -4.984375 3.613281 -4.359375 3.53125 -3.703125 C 3.695312 -3.691406 3.867188 -3.726562 4.046875 -3.8125 C 4.359375 -3.957031 4.644531 -4.21875 4.90625 -4.59375 C 5.164062 -4.96875 5.289062 -5.414062 5.28125 -5.9375 L 5.671875 -5.875 C 5.679688 -5.21875 5.550781 -4.65625 5.28125 -4.1875 C 5.019531 -3.71875 4.6875 -3.390625 4.28125 -3.203125 C 4.007812 -3.078125 3.703125 -2.988281 3.359375 -2.9375 C 3.179688 -2.257812 2.921875 -1.648438 2.578125 -1.109375 C 2.234375 -0.578125 1.828125 -0.203125 1.359375 0.015625 Z M 2.796875 -3.78125 C 2.867188 -4.320312 2.894531 -4.859375 2.875 -5.390625 C 2.863281 -5.921875 2.773438 -6.367188 2.609375 -6.734375 C 2.378906 -7.222656 2.109375 -7.394531 1.796875 -7.25 C 1.648438 -7.1875 1.53125 -7.046875 1.4375 -6.828125 C 1.34375 -6.617188 1.300781 -6.367188 1.3125 -6.078125 C 1.320312 -5.785156 1.394531 -5.492188 1.53125 -5.203125 C 1.644531 -4.941406 1.828125 -4.664062 2.078125 -4.375 C 2.328125 -4.09375 2.566406 -3.894531 2.796875 -3.78125 Z M 1.578125 -1.109375 C 1.773438 -1.203125 1.960938 -1.425781 2.140625 -1.78125 C 2.316406 -2.144531 2.472656 -2.566406 2.609375 -3.046875 C 1.710938 -3.304688 0.992188 -3.972656 0.453125 -5.046875 C 0.347656 -4.910156 0.28125 -4.625 0.25 -4.1875 C 0.226562 -3.757812 0.242188 -3.300781 0.296875 -2.8125 C 0.359375 -2.332031 0.460938 -1.9375 0.609375 -1.625 C 0.859375 -1.101562 1.179688 -0.929688 1.578125 -1.109375 Z M 1.578125 -1.109375 "/></g></g></g><g fill="#333333" fill-opacity="1"><g transform="translate(180.709175, 51.271338)"><g><path d="M 3.375 -0.703125 C 2.945312 -0.546875 2.5625 -0.53125 2.21875 -0.65625 C 1.875 -0.789062 1.632812 -1.050781 1.5 -1.4375 C 1.414062 -1.65625 1.367188 -1.910156 1.359375 -2.203125 C 1.347656 -2.492188 1.363281 -2.859375 1.40625 -3.296875 C 1.4375 -3.671875 1.453125 -3.984375 1.453125 -4.234375 C 1.460938 -4.484375 1.429688 -4.695312 1.359375 -4.875 C 1.203125 -5.320312 0.78125 -5.59375 0.09375 -5.6875 C 0.0703125 -5.007812 0.015625 -4.328125 -0.078125 -3.640625 C -0.171875 -2.953125 -0.265625 -2.351562 -0.359375 -1.84375 L -0.8125 -2.265625 C -0.625 -3.398438 -0.53125 -4.613281 -0.53125 -5.90625 C -0.6875 -5.976562 -0.800781 -6.113281 -0.875 -6.3125 C -0.976562 -6.613281 -0.984375 -6.929688 -0.890625 -7.265625 C -0.804688 -7.597656 -0.679688 -7.796875 -0.515625 -7.859375 C -0.398438 -7.898438 -0.273438 -7.863281 -0.140625 -7.75 C -0.015625 -7.632812 0.0625 -7.535156 0.09375 -7.453125 C 0.113281 -7.398438 0.125 -7.285156 0.125 -7.109375 C 0.132812 -6.941406 0.140625 -6.816406 0.140625 -6.734375 C 0.179688 -6.660156 0.253906 -6.597656 0.359375 -6.546875 C 0.460938 -6.503906 0.65625 -6.457031 0.9375 -6.40625 C 1.425781 -6.269531 1.828125 -6.117188 2.140625 -5.953125 C 2.453125 -5.785156 2.679688 -5.5 2.828125 -5.09375 C 2.921875 -4.832031 2.972656 -4.554688 2.984375 -4.265625 C 2.992188 -3.984375 2.976562 -3.628906 2.9375 -3.203125 C 2.863281 -2.597656 2.863281 -2.191406 2.9375 -1.984375 C 3.039062 -1.703125 3.234375 -1.613281 3.515625 -1.71875 C 3.867188 -1.84375 4.195312 -2.117188 4.5 -2.546875 C 4.8125 -2.984375 5.066406 -3.460938 5.265625 -3.984375 C 5.472656 -4.503906 5.59375 -4.96875 5.625 -5.375 L 6.15625 -5.203125 C 6.113281 -4.597656 5.96875 -3.984375 5.71875 -3.359375 C 5.476562 -2.742188 5.148438 -2.191406 4.734375 -1.703125 C 4.316406 -1.210938 3.863281 -0.878906 3.375 -0.703125 Z M 3.375 -0.703125 "/></g></g></g><g fill="#333333" fill-opacity="1"><g transform="translate(188.496481, 48.584062)"><g/></g></g><g fill="#333333" fill-opacity="1"><g transform="translate(194.663039, 46.975553)"><g><path d="M 1.8125 0.515625 C 1.25 0.617188 0.78125 0.539062 0.40625 0.28125 C 0.03125 0.03125 -0.210938 -0.410156 -0.328125 -1.046875 C -0.421875 -1.515625 -0.445312 -2.128906 -0.40625 -2.890625 C -0.363281 -3.660156 -0.269531 -4.488281 -0.125 -5.375 C -0.445312 -5.375 -0.671875 -5.390625 -0.796875 -5.421875 L -0.90625 -5.984375 C -0.601562 -5.992188 -0.300781 -6.019531 0 -6.0625 C 0.28125 -7.519531 0.640625 -8.796875 1.078125 -9.890625 C 1.515625 -10.992188 1.925781 -11.582031 2.3125 -11.65625 C 2.445312 -11.6875 2.570312 -11.664062 2.6875 -11.59375 C 2.800781 -11.519531 2.875 -11.398438 2.90625 -11.234375 C 2.945312 -11.035156 2.910156 -10.757812 2.796875 -10.40625 C 2.691406 -10.050781 2.515625 -9.503906 2.265625 -8.765625 C 1.898438 -7.765625 1.617188 -6.929688 1.421875 -6.265625 C 2.816406 -6.523438 3.921875 -6.78125 4.734375 -7.03125 L 4.84375 -6.4375 C 3.445312 -6.007812 2.242188 -5.703125 1.234375 -5.515625 C 0.898438 -3.921875 0.820312 -2.648438 1 -1.703125 C 1.09375 -1.203125 1.234375 -0.863281 1.421875 -0.6875 C 1.617188 -0.507812 1.890625 -0.457031 2.234375 -0.53125 C 2.835938 -0.644531 3.40625 -1.035156 3.9375 -1.703125 C 4.46875 -2.367188 4.875 -3.222656 5.15625 -4.265625 L 5.453125 -4.140625 C 5.171875 -2.921875 4.703125 -1.878906 4.046875 -1.015625 C 3.398438 -0.160156 2.65625 0.347656 1.8125 0.515625 Z M 1.8125 0.515625 "/></g></g></g><g fill="#333333" fill-opacity="1"><g transform="translate(201.320571, 45.681013)"><g><path d="M 0.90625 0.625 C 0.65625 0.644531 0.445312 0.460938 0.28125 0.078125 C 0.125 -0.304688 0.0195312 -0.800781 -0.03125 -1.40625 C -0.132812 -2.5 0.0664062 -4.023438 0.578125 -5.984375 C 1.097656 -7.941406 1.738281 -9.695312 2.5 -11.25 C 3.269531 -12.800781 3.929688 -13.597656 4.484375 -13.640625 C 4.734375 -13.671875 4.941406 -13.554688 5.109375 -13.296875 C 5.273438 -13.046875 5.367188 -12.753906 5.390625 -12.421875 C 5.441406 -11.859375 5.304688 -11.085938 4.984375 -10.109375 C 4.671875 -9.128906 4.21875 -8.171875 3.625 -7.234375 C 3.039062 -6.296875 2.410156 -5.582031 1.734375 -5.09375 C 1.421875 -3.945312 1.3125 -2.882812 1.40625 -1.90625 L 1.46875 -1.53125 C 1.488281 -1.570312 1.523438 -1.710938 1.578125 -1.953125 C 1.765625 -2.597656 1.96875 -3.191406 2.1875 -3.734375 C 2.414062 -4.273438 2.742188 -4.789062 3.171875 -5.28125 C 3.609375 -5.78125 4.140625 -6.054688 4.765625 -6.109375 C 5.328125 -6.160156 5.75 -6.019531 6.03125 -5.6875 C 6.320312 -5.351562 6.492188 -4.941406 6.546875 -4.453125 C 6.566406 -4.160156 6.550781 -3.882812 6.5 -3.625 C 6.445312 -3.375 6.367188 -3.054688 6.265625 -2.671875 C 6.242188 -2.617188 6.207031 -2.503906 6.15625 -2.328125 C 6.101562 -2.148438 6.066406 -1.984375 6.046875 -1.828125 C 6.035156 -1.679688 6.035156 -1.554688 6.046875 -1.453125 C 6.078125 -1.054688 6.257812 -0.875 6.59375 -0.90625 C 6.863281 -0.925781 7.171875 -1.085938 7.515625 -1.390625 C 7.859375 -1.703125 8.1875 -2.097656 8.5 -2.578125 C 8.820312 -3.054688 9.082031 -3.570312 9.28125 -4.125 L 9.609375 -3.84375 C 9.253906 -2.800781 8.78125 -1.9375 8.1875 -1.25 C 7.601562 -0.570312 6.941406 -0.195312 6.203125 -0.125 C 5.753906 -0.0820312 5.390625 -0.171875 5.109375 -0.390625 C 4.835938 -0.609375 4.6875 -0.90625 4.65625 -1.28125 C 4.632812 -1.53125 4.675781 -1.972656 4.78125 -2.609375 C 4.914062 -3.234375 4.96875 -3.695312 4.9375 -4 C 4.894531 -4.507812 4.65625 -4.742188 4.21875 -4.703125 C 3.769531 -4.660156 3.414062 -4.394531 3.15625 -3.90625 C 2.894531 -3.425781 2.613281 -2.71875 2.3125 -1.78125 C 2.082031 -1 1.867188 -0.410156 1.671875 -0.015625 C 1.472656 0.378906 1.21875 0.59375 0.90625 0.625 Z M 2 -6.296875 C 2.46875 -6.804688 2.90625 -7.441406 3.3125 -8.203125 C 3.71875 -8.972656 4.035156 -9.707031 4.265625 -10.40625 C 4.492188 -11.113281 4.59375 -11.617188 4.5625 -11.921875 C 4.414062 -11.847656 4.175781 -11.523438 3.84375 -10.953125 C 3.519531 -10.378906 3.1875 -9.671875 2.84375 -8.828125 C 2.5 -7.992188 2.21875 -7.148438 2 -6.296875 Z M 2 -6.296875 "/></g></g></g><g fill="#333333" fill-opacity="1"><g transform="translate(211.843224, 44.859864)"><g><path d="M 2.125 0.828125 C 1.351562 0.828125 0.753906 0.613281 0.328125 0.1875 C -0.0976562 -0.226562 -0.304688 -0.765625 -0.296875 -1.421875 C -0.285156 -2.140625 -0.0390625 -2.910156 0.4375 -3.734375 C 0.925781 -4.554688 1.550781 -5.242188 2.3125 -5.796875 C 3.070312 -6.359375 3.816406 -6.632812 4.546875 -6.625 C 4.929688 -6.625 5.25 -6.523438 5.5 -6.328125 C 5.75 -6.128906 5.875 -5.8125 5.875 -5.375 C 5.863281 -4.78125 5.628906 -4.222656 5.171875 -3.703125 C 4.710938 -3.179688 4.117188 -2.753906 3.390625 -2.421875 C 2.671875 -2.097656 1.929688 -1.898438 1.171875 -1.828125 C 1.148438 -1.703125 1.140625 -1.5625 1.140625 -1.40625 C 1.140625 -1.082031 1.222656 -0.757812 1.390625 -0.4375 C 1.566406 -0.125 1.953125 0.0351562 2.546875 0.046875 C 3.296875 0.0546875 4.0625 -0.238281 4.84375 -0.84375 C 5.632812 -1.445312 6.273438 -2.195312 6.765625 -3.09375 L 7.140625 -2.796875 C 6.640625 -1.703125 5.925781 -0.820312 5 -0.15625 C 4.070312 0.507812 3.113281 0.835938 2.125 0.828125 Z M 1.390625 -2.515625 C 1.835938 -2.566406 2.332031 -2.738281 2.875 -3.03125 C 3.425781 -3.332031 3.894531 -3.707031 4.28125 -4.15625 C 4.675781 -4.601562 4.878906 -5.039062 4.890625 -5.46875 C 4.890625 -5.601562 4.863281 -5.695312 4.8125 -5.75 C 4.757812 -5.800781 4.675781 -5.828125 4.5625 -5.828125 C 4.207031 -5.828125 3.816406 -5.660156 3.390625 -5.328125 C 2.960938 -4.992188 2.566406 -4.570312 2.203125 -4.0625 C 1.835938 -3.550781 1.566406 -3.035156 1.390625 -2.515625 Z M 1.390625 -2.515625 "/></g></g></g><g fill="#333333" fill-opacity="1"><g transform="translate(219.683681, 45.034602)"><g/></g></g><g fill="#333333" fill-opacity="1"><g transform="translate(226.003346, 45.636144)"><g><path d="M 1.96875 1.15625 C 1.207031 1.03125 0.648438 0.722656 0.296875 0.234375 C -0.0546875 -0.242188 -0.179688 -0.804688 -0.078125 -1.453125 C 0.046875 -2.160156 0.414062 -2.878906 1.03125 -3.609375 C 1.644531 -4.347656 2.367188 -4.929688 3.203125 -5.359375 C 4.035156 -5.796875 4.8125 -5.953125 5.53125 -5.828125 C 5.90625 -5.765625 6.203125 -5.613281 6.421875 -5.375 C 6.648438 -5.132812 6.726562 -4.800781 6.65625 -4.375 C 6.550781 -3.789062 6.226562 -3.273438 5.6875 -2.828125 C 5.15625 -2.390625 4.503906 -2.066406 3.734375 -1.859375 C 2.972656 -1.648438 2.210938 -1.570312 1.453125 -1.625 C 1.410156 -1.5 1.375 -1.363281 1.34375 -1.21875 C 1.289062 -0.894531 1.320312 -0.5625 1.4375 -0.21875 C 1.5625 0.125 1.921875 0.34375 2.515625 0.4375 C 3.253906 0.570312 4.054688 0.40625 4.921875 -0.0625 C 5.796875 -0.53125 6.546875 -1.171875 7.171875 -1.984375 L 7.484375 -1.625 C 6.816406 -0.625 5.972656 0.128906 4.953125 0.640625 C 3.941406 1.148438 2.945312 1.320312 1.96875 1.15625 Z M 1.765625 -2.265625 C 2.210938 -2.242188 2.734375 -2.335938 3.328125 -2.546875 C 3.921875 -2.753906 4.445312 -3.046875 4.90625 -3.421875 C 5.363281 -3.804688 5.628906 -4.207031 5.703125 -4.625 C 5.722656 -4.757812 5.707031 -4.859375 5.65625 -4.921875 C 5.613281 -4.984375 5.535156 -5.019531 5.421875 -5.03125 C 5.066406 -5.09375 4.65625 -4.992188 4.1875 -4.734375 C 3.71875 -4.472656 3.265625 -4.113281 2.828125 -3.65625 C 2.390625 -3.207031 2.035156 -2.742188 1.765625 -2.265625 Z M 1.765625 -2.265625 "/></g></g></g><g fill="#333333" fill-opacity="1"><g transform="translate(233.645331, 46.969714)"><g><path d="M 0.765625 1.109375 C 0.347656 1.003906 0.0390625 0.773438 -0.15625 0.421875 C -0.363281 0.0664062 -0.398438 -0.351562 -0.265625 -0.84375 C -0.078125 -1.539062 0.382812 -2.25 1.125 -2.96875 C 1.875 -3.6875 2.71875 -4.234375 3.65625 -4.609375 C 4.601562 -4.984375 5.46875 -5.066406 6.25 -4.859375 C 6.769531 -4.710938 7.171875 -4.457031 7.453125 -4.09375 C 7.734375 -3.738281 7.816406 -3.351562 7.703125 -2.9375 C 7.554688 -2.382812 7.132812 -2.191406 6.4375 -2.359375 C 6.84375 -2.097656 7.015625 -1.859375 6.953125 -1.640625 C 6.921875 -1.554688 6.835938 -1.441406 6.703125 -1.296875 C 6.578125 -1.160156 6.441406 -1.015625 6.296875 -0.859375 C 6.015625 -0.597656 5.785156 -0.367188 5.609375 -0.171875 C 5.441406 0.0234375 5.332031 0.222656 5.28125 0.421875 C 5.226562 0.609375 5.226562 0.773438 5.28125 0.921875 C 5.34375 1.078125 5.460938 1.175781 5.640625 1.21875 C 5.972656 1.3125 6.460938 1.195312 7.109375 0.875 C 7.753906 0.550781 8.441406 -0.00390625 9.171875 -0.796875 L 9.4375 -0.375 C 8.71875 0.488281 7.953125 1.128906 7.140625 1.546875 C 6.328125 1.972656 5.585938 2.097656 4.921875 1.921875 C 4.441406 1.785156 4.117188 1.523438 3.953125 1.140625 C 3.785156 0.765625 3.757812 0.375 3.875 -0.03125 C 3.144531 0.457031 2.550781 0.800781 2.09375 1 C 1.632812 1.195312 1.191406 1.234375 0.765625 1.109375 Z M 1.390625 0.296875 C 1.796875 0.410156 2.359375 0.242188 3.078125 -0.203125 C 3.796875 -0.648438 4.640625 -1.257812 5.609375 -2.03125 L 6.09375 -2.40625 C 6.144531 -2.46875 6.203125 -2.488281 6.265625 -2.46875 L 6.34375 -2.421875 C 6.445312 -2.585938 6.53125 -2.796875 6.59375 -3.046875 C 6.757812 -3.671875 6.59375 -4.050781 6.09375 -4.1875 C 5.570312 -4.332031 4.953125 -4.203125 4.234375 -3.796875 C 3.515625 -3.398438 2.859375 -2.867188 2.265625 -2.203125 C 1.671875 -1.535156 1.296875 -0.925781 1.140625 -0.375 C 1.085938 -0.164062 1.078125 -0.015625 1.109375 0.078125 C 1.148438 0.179688 1.242188 0.253906 1.390625 0.296875 Z M 1.390625 0.296875 "/></g></g></g><g fill="#333333" fill-opacity="1"><g transform="translate(242.920342, 49.618566)"><g><path d="M 3.015625 1.671875 C 2.585938 1.515625 2.285156 1.269531 2.109375 0.9375 C 1.929688 0.613281 1.914062 0.265625 2.0625 -0.109375 C 2.15625 -0.335938 2.289062 -0.5625 2.46875 -0.78125 C 2.65625 -1.007812 2.90625 -1.273438 3.21875 -1.578125 C 3.488281 -1.847656 3.707031 -2.078125 3.875 -2.265625 C 4.050781 -2.460938 4.171875 -2.644531 4.234375 -2.8125 C 4.398438 -3.25 4.25 -3.722656 3.78125 -4.234375 C 3.332031 -3.742188 2.84375 -3.265625 2.3125 -2.796875 C 1.789062 -2.335938 1.332031 -1.953125 0.9375 -1.640625 L 0.859375 -2.25 C 1.742188 -2.988281 2.613281 -3.851562 3.46875 -4.84375 C 3.382812 -4.988281 3.378906 -5.160156 3.453125 -5.359375 C 3.566406 -5.648438 3.769531 -5.894531 4.0625 -6.09375 C 4.351562 -6.289062 4.582031 -6.359375 4.75 -6.296875 C 4.863281 -6.253906 4.929688 -6.144531 4.953125 -5.96875 C 4.972656 -5.800781 4.96875 -5.671875 4.9375 -5.578125 C 4.914062 -5.535156 4.847656 -5.445312 4.734375 -5.3125 C 4.628906 -5.175781 4.550781 -5.078125 4.5 -5.015625 C 4.488281 -4.929688 4.503906 -4.835938 4.546875 -4.734375 C 4.597656 -4.628906 4.707031 -4.460938 4.875 -4.234375 C 5.164062 -3.828125 5.375 -3.453125 5.5 -3.109375 C 5.632812 -2.773438 5.625 -2.40625 5.46875 -2 C 5.363281 -1.738281 5.222656 -1.5 5.046875 -1.28125 C 4.867188 -1.0625 4.628906 -0.804688 4.328125 -0.515625 C 3.867188 -0.109375 3.597656 0.203125 3.515625 0.421875 C 3.410156 0.691406 3.5 0.878906 3.78125 0.984375 C 4.132812 1.117188 4.566406 1.125 5.078125 1 C 5.585938 0.882812 6.09375 0.691406 6.59375 0.421875 C 7.09375 0.148438 7.484375 -0.125 7.765625 -0.40625 L 8.0625 0.0625 C 7.632812 0.488281 7.125 0.859375 6.53125 1.171875 C 5.9375 1.484375 5.320312 1.691406 4.6875 1.796875 C 4.0625 1.898438 3.503906 1.859375 3.015625 1.671875 Z M 3.015625 1.671875 "/></g></g></g><g fill="#333333" fill-opacity="1"><g transform="translate(250.565522, 52.65033)"><g><path d="M 1.140625 1.5 C 0.628906 1.25 0.300781 0.910156 0.15625 0.484375 C 0.0078125 0.0546875 0.078125 -0.445312 0.359375 -1.03125 C 0.578125 -1.457031 0.925781 -1.96875 1.40625 -2.5625 C 1.894531 -3.15625 2.460938 -3.757812 3.109375 -4.375 C 2.835938 -4.582031 2.664062 -4.726562 2.59375 -4.8125 L 2.859375 -5.328125 C 3.109375 -5.171875 3.359375 -5.019531 3.609375 -4.875 C 4.710938 -5.882812 5.765625 -6.695312 6.765625 -7.3125 C 7.773438 -7.925781 8.460938 -8.148438 8.828125 -7.984375 C 8.941406 -7.921875 9.019531 -7.820312 9.0625 -7.6875 C 9.113281 -7.550781 9.101562 -7.410156 9.03125 -7.265625 C 8.945312 -7.085938 8.757812 -6.890625 8.46875 -6.671875 C 8.175781 -6.453125 7.695312 -6.125 7.03125 -5.6875 C 6.15625 -5.09375 5.441406 -4.585938 4.890625 -4.171875 C 6.160156 -3.554688 7.195312 -3.109375 8 -2.828125 L 7.734375 -2.265625 C 6.359375 -2.773438 5.210938 -3.25 4.296875 -3.6875 C 3.054688 -2.601562 2.226562 -1.632812 1.8125 -0.78125 C 1.59375 -0.3125 1.507812 0.046875 1.5625 0.296875 C 1.613281 0.554688 1.796875 0.765625 2.109375 0.921875 C 2.660156 1.191406 3.347656 1.210938 4.171875 0.984375 C 4.992188 0.765625 5.832031 0.328125 6.6875 -0.328125 L 6.84375 -0.0625 C 5.894531 0.75 4.898438 1.304688 3.859375 1.609375 C 2.816406 1.910156 1.910156 1.875 1.140625 1.5 Z M 1.140625 1.5 "/></g></g></g><g fill="#333333" fill-opacity="1"><g transform="translate(256.679245, 55.587139)"><g><path d="M 0.359375 1.03125 C 0.148438 0.90625 0.09375 0.640625 0.1875 0.234375 C 0.28125 -0.160156 0.484375 -0.617188 0.796875 -1.140625 C 1.378906 -2.078125 2.460938 -3.175781 4.046875 -4.4375 C 5.628906 -5.707031 7.1875 -6.734375 8.71875 -7.515625 C 10.257812 -8.304688 11.269531 -8.554688 11.75 -8.265625 C 11.96875 -8.140625 12.066406 -7.925781 12.046875 -7.625 C 12.023438 -7.320312 11.925781 -7.03125 11.75 -6.75 C 11.457031 -6.269531 10.890625 -5.726562 10.046875 -5.125 C 9.203125 -4.53125 8.257812 -4.03125 7.21875 -3.625 C 6.1875 -3.226562 5.257812 -3.035156 4.4375 -3.046875 C 3.488281 -2.328125 2.757812 -1.539062 2.25 -0.6875 L 2.078125 -0.359375 C 2.117188 -0.378906 2.238281 -0.46875 2.4375 -0.625 C 2.976562 -1.03125 3.492188 -1.382812 3.984375 -1.6875 C 4.484375 -1.988281 5.054688 -2.207031 5.703125 -2.34375 C 6.347656 -2.488281 6.9375 -2.394531 7.46875 -2.0625 C 7.957031 -1.769531 8.210938 -1.398438 8.234375 -0.953125 C 8.265625 -0.503906 8.15625 -0.0703125 7.90625 0.34375 C 7.75 0.59375 7.578125 0.800781 7.390625 0.96875 C 7.203125 1.132812 6.945312 1.34375 6.625 1.59375 C 6.582031 1.625 6.484375 1.695312 6.328125 1.8125 C 6.171875 1.925781 6.039062 2.035156 5.9375 2.140625 C 5.84375 2.253906 5.769531 2.351562 5.71875 2.4375 C 5.507812 2.78125 5.550781 3.039062 5.84375 3.21875 C 6.070312 3.351562 6.410156 3.398438 6.859375 3.359375 C 7.316406 3.316406 7.8125 3.195312 8.34375 3 C 8.882812 2.800781 9.410156 2.546875 9.921875 2.234375 L 10 2.65625 C 9.082031 3.269531 8.1875 3.675781 7.3125 3.875 C 6.4375 4.070312 5.679688 3.976562 5.046875 3.59375 C 4.648438 3.351562 4.410156 3.066406 4.328125 2.734375 C 4.242188 2.398438 4.300781 2.070312 4.5 1.75 C 4.632812 1.53125 4.929688 1.195312 5.390625 0.75 C 5.878906 0.332031 6.203125 -0.00390625 6.359375 -0.265625 C 6.617188 -0.703125 6.5625 -1.035156 6.1875 -1.265625 C 5.800781 -1.492188 5.359375 -1.488281 4.859375 -1.25 C 4.359375 -1.019531 3.710938 -0.617188 2.921875 -0.046875 C 2.265625 0.441406 1.738281 0.785156 1.34375 0.984375 C 0.957031 1.179688 0.628906 1.195312 0.359375 1.03125 Z M 5.375 -3.859375 C 6.050781 -3.984375 6.773438 -4.234375 7.546875 -4.609375 C 8.328125 -4.984375 9.019531 -5.382812 9.625 -5.8125 C 10.238281 -6.238281 10.625 -6.582031 10.78125 -6.84375 C 10.613281 -6.875 10.226562 -6.757812 9.625 -6.5 C 9.019531 -6.238281 8.328125 -5.867188 7.546875 -5.390625 C 6.773438 -4.910156 6.050781 -4.398438 5.375 -3.859375 Z M 5.375 -3.859375 "/></g></g></g><g fill="#333333" fill-opacity="1"><g transform="translate(165.015214, 195.17887)"><g><path d="M 7.5625 -15.828125 C 9.226562 -15.828125 10.550781 -15.40625 11.53125 -14.5625 C 12.507812 -13.71875 13 -12.519531 13 -10.96875 C 13 -9.800781 12.691406 -8.8125 12.078125 -8 C 11.460938 -7.195312 10.613281 -6.691406 9.53125 -6.484375 L 14.515625 0 L 9.390625 0 L 5.5 -6.09375 L 5.453125 -6.09375 L 5.453125 0 L 1.34375 0 L 1.34375 -15.828125 Z M 5.453125 -8.734375 L 5.8125 -8.734375 C 6.820312 -8.734375 7.554688 -8.894531 8.015625 -9.21875 C 8.484375 -9.539062 8.71875 -10.035156 8.71875 -10.703125 C 8.71875 -11.378906 8.488281 -11.878906 8.03125 -12.203125 C 7.570312 -12.523438 6.832031 -12.6875 5.8125 -12.6875 L 5.453125 -12.6875 Z M 5.453125 -8.734375 "/></g></g></g><g fill="#333333" fill-opacity="1"><g transform="translate(181.206296, 195.17887)"><g><path d="M 10.359375 -15.828125 L 10.359375 -12.34375 L 5.453125 -12.34375 L 5.453125 -9.703125 L 10.09375 -9.703125 L 10.09375 -6.21875 L 5.453125 -6.21875 L 5.453125 -3.484375 L 10.359375 -3.484375 L 10.359375 0 L 1.34375 0 L 1.34375 -15.828125 Z M 10.359375 -15.828125 "/></g></g></g><g fill="#333333" fill-opacity="1"><g transform="translate(194.667368, 195.17887)"><g><path d="M 12.65625 -10.515625 C 12.25 -11.078125 11.722656 -11.507812 11.078125 -11.8125 C 10.441406 -12.113281 9.765625 -12.265625 9.046875 -12.265625 C 7.828125 -12.265625 6.816406 -11.847656 6.015625 -11.015625 C 5.222656 -10.191406 4.828125 -9.144531 4.828125 -7.875 C 4.828125 -6.613281 5.222656 -5.578125 6.015625 -4.765625 C 6.804688 -3.960938 7.835938 -3.5625 9.109375 -3.5625 C 9.785156 -3.5625 10.429688 -3.707031 11.046875 -4 C 11.671875 -4.300781 12.207031 -4.71875 12.65625 -5.25 L 12.65625 -0.3125 C 11.9375 -0.09375 11.285156 0.0820312 10.703125 0.21875 C 10.128906 0.351562 9.570312 0.421875 9.03125 0.421875 C 6.820312 0.421875 4.851562 -0.34375 3.125 -1.875 C 1.40625 -3.40625 0.546875 -5.410156 0.546875 -7.890625 C 0.546875 -9.421875 0.921875 -10.828125 1.671875 -12.109375 C 2.429688 -13.398438 3.460938 -14.410156 4.765625 -15.140625 C 6.066406 -15.878906 7.445312 -16.25 8.90625 -16.25 C 10.082031 -16.25 11.332031 -15.984375 12.65625 -15.453125 Z M 12.65625 -10.515625 "/></g></g></g><g fill="#333333" fill-opacity="1"><g transform="translate(210.438441, 195.17887)"><g><path d="M 4.53125 -15.828125 L 7.5 -11.53125 L 10.453125 -15.828125 L 15.390625 -15.828125 L 9.5625 -7.609375 L 9.5625 0 L 5.4375 0 L 5.4375 -7.609375 L -0.40625 -15.828125 Z M 4.53125 -15.828125 "/></g></g></g><g fill="#333333" fill-opacity="1"><g transform="translate(227.343521, 195.17887)"><g><path d="M 12.65625 -10.515625 C 12.25 -11.078125 11.722656 -11.507812 11.078125 -11.8125 C 10.441406 -12.113281 9.765625 -12.265625 9.046875 -12.265625 C 7.828125 -12.265625 6.816406 -11.847656 6.015625 -11.015625 C 5.222656 -10.191406 4.828125 -9.144531 4.828125 -7.875 C 4.828125 -6.613281 5.222656 -5.578125 6.015625 -4.765625 C 6.804688 -3.960938 7.835938 -3.5625 9.109375 -3.5625 C 9.785156 -3.5625 10.429688 -3.707031 11.046875 -4 C 11.671875 -4.300781 12.207031 -4.71875 12.65625 -5.25 L 12.65625 -0.3125 C 11.9375 -0.09375 11.285156 0.0820312 10.703125 0.21875 C 10.128906 0.351562 9.570312 0.421875 9.03125 0.421875 C 6.820312 0.421875 4.851562 -0.34375 3.125 -1.875 C 1.40625 -3.40625 0.546875 -5.410156 0.546875 -7.890625 C 0.546875 -9.421875 0.921875 -10.828125 1.671875 -12.109375 C 2.429688 -13.398438 3.460938 -14.410156 4.765625 -15.140625 C 6.066406 -15.878906 7.445312 -16.25 8.90625 -16.25 C 10.082031 -16.25 11.332031 -15.984375 12.65625 -15.453125 Z M 12.65625 -10.515625 "/></g></g></g><g fill="#333333" fill-opacity="1"><g transform="translate(243.114594, 195.17887)"><g><path d="M 5.453125 -15.828125 L 5.453125 -3.484375 L 10.390625 -3.484375 L 10.390625 0 L 1.34375 0 L 1.34375 -15.828125 Z M 5.453125 -15.828125 "/></g></g></g><g fill="#333333" fill-opacity="1"><g transform="translate(255.420659, 195.17887)"><g><path d="M 10.359375 -15.828125 L 10.359375 -12.34375 L 5.453125 -12.34375 L 5.453125 -9.703125 L 10.09375 -9.703125 L 10.09375 -6.21875 L 5.453125 -6.21875 L 5.453125 -3.484375 L 10.359375 -3.484375 L 10.359375 0 L 1.34375 0 L 1.34375 -15.828125 Z M 10.359375 -15.828125 "/></g></g></g><g fill="#333333" fill-opacity="1"><g transform="translate(178.843338, 224.428868)"><g><path d="M 7.5625 -15.828125 C 9.226562 -15.828125 10.550781 -15.40625 11.53125 -14.5625 C 12.507812 -13.71875 13 -12.519531 13 -10.96875 C 13 -9.800781 12.691406 -8.8125 12.078125 -8 C 11.460938 -7.195312 10.613281 -6.691406 9.53125 -6.484375 L 14.515625 0 L 9.390625 0 L 5.5 -6.09375 L 5.453125 -6.09375 L 5.453125 0 L 1.34375 0 L 1.34375 -15.828125 Z M 5.453125 -8.734375 L 5.8125 -8.734375 C 6.820312 -8.734375 7.554688 -8.894531 8.015625 -9.21875 C 8.484375 -9.539062 8.71875 -10.035156 8.71875 -10.703125 C 8.71875 -11.378906 8.488281 -11.878906 8.03125 -12.203125 C 7.570312 -12.523438 6.832031 -12.6875 5.8125 -12.6875 L 5.453125 -12.6875 Z M 5.453125 -8.734375 "/></g></g></g><g fill="#333333" fill-opacity="1"><g transform="translate(195.03442, 224.428868)"><g><path d="M 10.359375 -15.828125 L 10.359375 -12.34375 L 5.453125 -12.34375 L 5.453125 -9.703125 L 10.09375 -9.703125 L 10.09375 -6.21875 L 5.453125 -6.21875 L 5.453125 -3.484375 L 10.359375 -3.484375 L 10.359375 0 L 1.34375 0 L 1.34375 -15.828125 Z M 10.359375 -15.828125 "/></g></g></g><g fill="#333333" fill-opacity="1"><g transform="translate(208.495492, 224.428868)"><g><path d="M 5.375 -15.828125 L 5.375 -7.34375 C 5.375 -6.238281 5.460938 -5.421875 5.640625 -4.890625 C 5.828125 -4.359375 6.117188 -3.941406 6.515625 -3.640625 C 6.921875 -3.335938 7.472656 -3.1875 8.171875 -3.1875 C 9.109375 -3.1875 9.804688 -3.484375 10.265625 -4.078125 C 10.734375 -4.679688 10.96875 -5.765625 10.96875 -7.328125 L 10.96875 -15.828125 L 15.078125 -15.828125 L 15.078125 -6.734375 C 15.078125 -4.929688 14.84375 -3.566406 14.375 -2.640625 C 13.914062 -1.722656 13.15625 -0.984375 12.09375 -0.421875 C 11.03125 0.140625 9.722656 0.421875 8.171875 0.421875 C 6.671875 0.421875 5.390625 0.160156 4.328125 -0.359375 C 3.265625 -0.878906 2.488281 -1.609375 2 -2.546875 C 1.507812 -3.492188 1.265625 -4.890625 1.265625 -6.734375 L 1.265625 -15.828125 Z M 5.375 -15.828125 "/></g></g></g><g fill="#333333" fill-opacity="1"><g transform="translate(226.744577, 224.428868)"><g><path d="M 6.703125 -16.25 C 8.410156 -16.25 10.066406 -15.816406 11.671875 -14.953125 L 10.03125 -11.765625 C 9.175781 -12.460938 8.269531 -12.8125 7.3125 -12.8125 C 6.84375 -12.8125 6.429688 -12.6875 6.078125 -12.4375 C 5.722656 -12.195312 5.546875 -11.878906 5.546875 -11.484375 C 5.546875 -11.117188 5.710938 -10.8125 6.046875 -10.5625 C 6.378906 -10.320312 6.929688 -10.09375 7.703125 -9.875 C 9.003906 -9.53125 9.957031 -9.144531 10.5625 -8.71875 C 11.175781 -8.289062 11.625 -7.8125 11.90625 -7.28125 C 12.1875 -6.75 12.328125 -6.097656 12.328125 -5.328125 C 12.328125 -3.296875 11.71875 -1.828125 10.5 -0.921875 C 9.289062 -0.0234375 7.847656 0.421875 6.171875 0.421875 C 4.179688 0.421875 2.332031 -0.179688 0.625 -1.390625 L 2.390625 -4.703125 C 3.640625 -3.609375 4.851562 -3.0625 6.03125 -3.0625 C 6.613281 -3.0625 7.09375 -3.203125 7.46875 -3.484375 C 7.851562 -3.773438 8.046875 -4.164062 8.046875 -4.65625 C 8.046875 -5.375 7.472656 -5.898438 6.328125 -6.234375 C 4.472656 -6.753906 3.300781 -7.179688 2.8125 -7.515625 C 2.320312 -7.847656 1.941406 -8.285156 1.671875 -8.828125 C 1.398438 -9.367188 1.265625 -10.070312 1.265625 -10.9375 C 1.265625 -12.519531 1.769531 -13.800781 2.78125 -14.78125 C 3.800781 -15.757812 5.109375 -16.25 6.703125 -16.25 Z M 6.703125 -16.25 "/></g></g></g><g fill="#333333" fill-opacity="1"><g transform="translate(241.591653, 224.428868)"><g><path d="M 10.359375 -15.828125 L 10.359375 -12.34375 L 5.453125 -12.34375 L 5.453125 -9.703125 L 10.09375 -9.703125 L 10.09375 -6.21875 L 5.453125 -6.21875 L 5.453125 -3.484375 L 10.359375 -3.484375 L 10.359375 0 L 1.34375 0 L 1.34375 -15.828125 Z M 10.359375 -15.828125 "/></g></g></g><g fill="#333333" fill-opacity="1"><g transform="translate(169.995682, 253.678866)"><g><path d="M 7.5625 -15.828125 C 9.226562 -15.828125 10.550781 -15.40625 11.53125 -14.5625 C 12.507812 -13.71875 13 -12.519531 13 -10.96875 C 13 -9.800781 12.691406 -8.8125 12.078125 -8 C 11.460938 -7.195312 10.613281 -6.691406 9.53125 -6.484375 L 14.515625 0 L 9.390625 0 L 5.5 -6.09375 L 5.453125 -6.09375 L 5.453125 0 L 1.34375 0 L 1.34375 -15.828125 Z M 5.453125 -8.734375 L 5.8125 -8.734375 C 6.820312 -8.734375 7.554688 -8.894531 8.015625 -9.21875 C 8.484375 -9.539062 8.71875 -10.035156 8.71875 -10.703125 C 8.71875 -11.378906 8.488281 -11.878906 8.03125 -12.203125 C 7.570312 -12.523438 6.832031 -12.6875 5.8125 -12.6875 L 5.453125 -12.6875 Z M 5.453125 -8.734375 "/></g></g></g><g fill="#333333" fill-opacity="1"><g transform="translate(186.186765, 253.678866)"><g><path d="M 10.359375 -15.828125 L 10.359375 -12.34375 L 5.453125 -12.34375 L 5.453125 -9.703125 L 10.09375 -9.703125 L 10.09375 -6.21875 L 5.453125 -6.21875 L 5.453125 -3.484375 L 10.359375 -3.484375 L 10.359375 0 L 1.34375 0 L 1.34375 -15.828125 Z M 10.359375 -15.828125 "/></g></g></g><g fill="#333333" fill-opacity="1"><g transform="translate(199.647836, 253.678866)"><g><path d="M 7.21875 -15.828125 C 8.644531 -15.828125 9.972656 -15.476562 11.203125 -14.78125 C 12.441406 -14.082031 13.421875 -13.113281 14.140625 -11.875 C 14.859375 -10.644531 15.21875 -9.328125 15.21875 -7.921875 C 15.21875 -6.492188 14.847656 -5.160156 14.109375 -3.921875 C 13.378906 -2.679688 12.394531 -1.71875 11.15625 -1.03125 C 9.914062 -0.34375 8.59375 0 7.1875 0 L 1.34375 0 L 1.34375 -15.828125 Z M 5.453125 -3.484375 L 6.0625 -3.484375 C 6.976562 -3.484375 7.703125 -3.582031 8.234375 -3.78125 C 10.035156 -4.40625 10.9375 -5.785156 10.9375 -7.921875 C 10.9375 -9.304688 10.523438 -10.390625 9.703125 -11.171875 C 8.878906 -11.953125 7.804688 -12.34375 6.484375 -12.34375 L 5.453125 -12.34375 Z M 5.453125 -3.484375 "/></g></g></g><g fill="#333333" fill-opacity="1"><g transform="translate(217.350923, 253.678866)"><g><path d="M 5.375 -15.828125 L 5.375 -7.34375 C 5.375 -6.238281 5.460938 -5.421875 5.640625 -4.890625 C 5.828125 -4.359375 6.117188 -3.941406 6.515625 -3.640625 C 6.921875 -3.335938 7.472656 -3.1875 8.171875 -3.1875 C 9.109375 -3.1875 9.804688 -3.484375 10.265625 -4.078125 C 10.734375 -4.679688 10.96875 -5.765625 10.96875 -7.328125 L 10.96875 -15.828125 L 15.078125 -15.828125 L 15.078125 -6.734375 C 15.078125 -4.929688 14.84375 -3.566406 14.375 -2.640625 C 13.914062 -1.722656 13.15625 -0.984375 12.09375 -0.421875 C 11.03125 0.140625 9.722656 0.421875 8.171875 0.421875 C 6.671875 0.421875 5.390625 0.160156 4.328125 -0.359375 C 3.265625 -0.878906 2.488281 -1.609375 2 -2.546875 C 1.507812 -3.492188 1.265625 -4.890625 1.265625 -6.734375 L 1.265625 -15.828125 Z M 5.375 -15.828125 "/></g></g></g><g fill="#333333" fill-opacity="1"><g transform="translate(235.600008, 253.678866)"><g><path d="M 6.703125 -16.25 C 8.410156 -16.25 10.066406 -15.816406 11.671875 -14.953125 L 10.03125 -11.765625 C 9.175781 -12.460938 8.269531 -12.8125 7.3125 -12.8125 C 6.84375 -12.8125 6.429688 -12.6875 6.078125 -12.4375 C 5.722656 -12.195312 5.546875 -11.878906 5.546875 -11.484375 C 5.546875 -11.117188 5.710938 -10.8125 6.046875 -10.5625 C 6.378906 -10.320312 6.929688 -10.09375 7.703125 -9.875 C 9.003906 -9.53125 9.957031 -9.144531 10.5625 -8.71875 C 11.175781 -8.289062 11.625 -7.8125 11.90625 -7.28125 C 12.1875 -6.75 12.328125 -6.097656 12.328125 -5.328125 C 12.328125 -3.296875 11.71875 -1.828125 10.5 -0.921875 C 9.289062 -0.0234375 7.847656 0.421875 6.171875 0.421875 C 4.179688 0.421875 2.332031 -0.179688 0.625 -1.390625 L 2.390625 -4.703125 C 3.640625 -3.609375 4.851562 -3.0625 6.03125 -3.0625 C 6.613281 -3.0625 7.09375 -3.203125 7.46875 -3.484375 C 7.851562 -3.773438 8.046875 -4.164062 8.046875 -4.65625 C 8.046875 -5.375 7.472656 -5.898438 6.328125 -6.234375 C 4.472656 -6.753906 3.300781 -7.179688 2.8125 -7.515625 C 2.320312 -7.847656 1.941406 -8.285156 1.671875 -8.828125 C 1.398438 -9.367188 1.265625 -10.070312 1.265625 -10.9375 C 1.265625 -12.519531 1.769531 -13.800781 2.78125 -14.78125 C 3.800781 -15.757812 5.109375 -16.25 6.703125 -16.25 Z M 6.703125 -16.25 "/></g></g></g><g fill="#333333" fill-opacity="1"><g transform="translate(250.447085, 253.678866)"><g><path d="M 10.359375 -15.828125 L 10.359375 -12.34375 L 5.453125 -12.34375 L 5.453125 -9.703125 L 10.09375 -9.703125 L 10.09375 -6.21875 L 5.453125 -6.21875 L 5.453125 -3.484375 L 10.359375 -3.484375 L 10.359375 0 L 1.34375 0 L 1.34375 -15.828125 Z M 10.359375 -15.828125 "/></g></g></g><g clip-path="url(#9b70cbed16)"><path fill="#333333" d="M 187.417969 97.90625 L 199.054688 78.664062 C 202.785156 72.496094 209.121094 68.816406 216 68.816406 C 222.875 68.816406 229.210938 72.496094 232.941406 78.664062 L 243.964844 96.894531 L 246.152344 88.613281 C 246.445312 87.5 247.589844 86.835938 248.703125 87.128906 C 249.820312 87.421875 250.488281 88.566406 250.191406 89.683594 L 246.460938 103.796875 C 246.214844 104.730469 245.367188 105.351562 244.445312 105.351562 C 244.265625 105.351562 244.085938 105.328125 243.910156 105.28125 L 229.792969 101.554688 C 228.675781 101.261719 228.011719 100.117188 228.308594 99 C 228.601562 97.886719 229.746094 97.21875 230.859375 97.515625 L 241.089844 100.21875 L 229.363281 80.824219 C 226.398438 75.921875 221.402344 72.992188 216 72.992188 C 210.59375 72.992188 205.597656 75.921875 202.632812 80.824219 L 190.996094 100.066406 C 190.398438 101.054688 189.113281 101.371094 188.128906 100.773438 C 187.140625 100.179688 186.824219 98.894531 187.417969 97.90625 Z M 263.816406 129.722656 L 253.738281 113.054688 C 253.140625 112.066406 251.855469 111.75 250.867188 112.347656 C 249.882812 112.945312 249.566406 114.230469 250.164062 115.214844 L 260.242188 131.882812 C 263.671875 137.554688 263.769531 144.679688 260.5 150.476562 C 257.574219 155.660156 252.484375 158.753906 246.875 158.753906 L 220.671875 158.753906 L 227.199219 151.96875 C 228 151.136719 227.976562 149.816406 227.144531 149.015625 C 226.3125 148.214844 224.992188 148.242188 224.191406 149.074219 L 214.066406 159.59375 C 213.265625 160.421875 213.292969 161.746094 214.121094 162.546875 L 224.640625 172.671875 C 225.046875 173.0625 225.566406 173.253906 226.085938 173.253906 C 226.632812 173.253906 227.183594 173.039062 227.59375 172.617188 C 228.394531 171.785156 228.367188 170.460938 227.535156 169.664062 L 220.546875 162.933594 L 246.875 162.933594 C 254.011719 162.933594 260.464844 159.042969 264.140625 152.527344 C 268.148438 145.417969 268.023438 136.683594 263.816406 129.722656 Z M 204.375 158.757812 L 185.125 158.757812 C 179.511719 158.757812 174.417969 155.664062 171.496094 150.480469 C 168.226562 144.683594 168.328125 137.558594 171.757812 131.882812 L 183.023438 113.25 L 185.511719 123.460938 C 185.742188 124.417969 186.597656 125.058594 187.539062 125.058594 C 187.703125 125.058594 187.867188 125.039062 188.035156 124.996094 C 189.15625 124.722656 189.84375 123.59375 189.570312 122.472656 L 186.117188 108.289062 C 185.84375 107.167969 184.714844 106.480469 183.59375 106.753906 L 169.40625 110.207031 C 168.285156 110.480469 167.597656 111.609375 167.871094 112.730469 C 168.144531 113.851562 169.273438 114.539062 170.394531 114.265625 L 178.761719 112.226562 L 168.179688 129.722656 C 163.972656 136.683594 163.847656 145.421875 167.859375 152.53125 C 171.53125 159.046875 177.984375 162.933594 185.125 162.933594 L 204.375 162.933594 C 205.527344 162.933594 206.464844 162 206.464844 160.84375 C 206.464844 159.691406 205.527344 158.757812 204.375 158.757812 Z M 204.375 158.757812 " fill-opacity="1" fill-rule="nonzero"/></g><g fill="#333333" fill-opacity="1"><g transform="translate(200.543473, 133.350011)"><g><path d="M 7.5625 -15.828125 C 9.226562 -15.828125 10.550781 -15.40625 11.53125 -14.5625 C 12.507812 -13.71875 13 -12.519531 13 -10.96875 C 13 -9.800781 12.691406 -8.8125 12.078125 -8 C 11.460938 -7.195312 10.613281 -6.691406 9.53125 -6.484375 L 14.515625 0 L 9.390625 0 L 5.5 -6.09375 L 5.453125 -6.09375 L 5.453125 0 L 1.34375 0 L 1.34375 -15.828125 Z M 5.453125 -8.734375 L 5.8125 -8.734375 C 6.820312 -8.734375 7.554688 -8.894531 8.015625 -9.21875 C 8.484375 -9.539062 8.71875 -10.035156 8.71875 -10.703125 C 8.71875 -11.378906 8.488281 -11.878906 8.03125 -12.203125 C 7.570312 -12.523438 6.832031 -12.6875 5.8125 -12.6875 L 5.453125 -12.6875 Z M 5.453125 -8.734375 "/></g></g></g><g fill="#333333" fill-opacity="1"><g transform="translate(216.734555, 133.350011)"><g><path d="M 10.359375 -15.828125 L 10.359375 -12.34375 L 5.453125 -12.34375 L 5.453125 -9.703125 L 10.09375 -9.703125 L 10.09375 -6.21875 L 5.453125 -6.21875 L 5.453125 -3.484375 L 10.359375 -3.484375 L 10.359375 0 L 1.34375 0 L 1.34375 -15.828125 Z M 10.359375 -15.828125 "/></g></g></g></svg>